<?xml version="1.0" encoding="UTF-8"?><svg id="b" xmlns="http://www.w3.org/2000/svg" width="1339.91" height="617.76" viewBox="0 0 1339.91 617.76"><defs><style>.d{fill:#fff;}</style></defs><g id="c"><path class="d" d="M524.09,538.69c-9.29,0-17-3.86-23.14-11.57-2.54-3.16-4.73-6.31-6.57-9.47-4.73-7.8-9.09-12.73-13.08-14.79-3.99-2.06-8.7-3.09-14.13-3.09,0,1.31.13,4.16.39,8.55.35,6.84,1.97,25.4,2.2,29.74.11,2.02-.67,3.08-4.09,3.08-1.89-.05-5.72-.14-6.82-.27-1.04-.13-1.86-.98-1.88-2.03-.14-7.87-.79-21.57-1.25-29.6-2.02-32.51-3.02-53.24-3.02-62.18,0-3.77.79-6.13,2.37-7.1,1.58-.96,7.49-1.45,17.75-1.45,18.32,0,30.67,4.16,37.07,12.49,3.68,4.91,5.52,10.08,5.52,15.51,0,13.67-8.59,23.09-25.77,28.26,4.03,3.16,7.49,7.06,10.39,11.7,5.87,8.85,10.91,14.85,15.12,18.01,2.89,2.19,6.26,3.29,10.12,3.29,3.15,0,5.96-.83,8.41-2.5,2.45-1.66,4.6-3.44,6.44-5.32,1.84-1.88,3.11-2.83,3.81-2.83.35,0,.99.46,1.91,1.38.92.92,1.75,2.23,2.5,3.94.74,1.71,1.12,3.05,1.12,4.01,0,.7-1.27,2.06-3.81,4.08-2.54,2.01-5.74,3.88-9.6,5.59-3.86,1.71-7.84,2.56-11.96,2.56ZM465.99,488.87c15.69-1.75,25.98-4.56,30.89-8.41,4.91-3.86,7.36-8.89,7.36-15.12,0-3.68-1.45-6.79-4.34-9.33-4.82-4.12-12.05-6.31-21.69-6.57-4.73,0-9.47.31-14.2.92,0,5.17.26,12.75.79,22.74.61,10.52,1.01,15.78,1.18,15.78ZM531.75,508.23c-1.07,0-1.94-.02-2.63-.06-.69-.04-1.28-.06-1.77-.06s-.8-.06-.91-.17c-.11-.11-.36-4.7-.74-13.76-.76-20.63-1.14-29.62-1.14-37.39,0-2.97.11-4.76.34-5.37,16.52-.46,26.23-.69,29.12-.69.91,0,1.39.06,1.43.17.04.11.13.29.28.51.84,1.14,1.26,3.08,1.26,5.83,0,1.07-.04,1.6-.11,1.6s-.19.04-.34.11c-8.15.38-12.93.65-14.33.8-1.41.15-2.57.27-3.48.34-2.89.23-4.34.57-4.34,1.03l-.34,4.88c.18,2.07.26,11.61.79,11.61,6.32-.46,11.04-.69,14.16-.69,1.29,0,1.94.23,1.94.69,0,2.36.04,3.88.11,4.57,0,2.21-.19,3.31-.57,3.31-3.2.15-8.3.46-15.3.91-.08,2.21-.11,4.61-.11,7.2,0,3.66.27,5.48.8,5.48,10.74-.76,17.21-1.14,19.42-1.14,1.37,0,2.09.08,2.17.23.61,1.22.91,3.43.91,6.62,0,1.14-.15,1.71-.46,1.71-11.35,1.14-20.06,1.71-26.16,1.71Z"/><path class="d" d="M573.66,530.58c-1.75,0-2.93-.11-3.54-.34-.23-.08-.68-8.11-1.37-24.1-1.3-29.24-1.94-46.83-1.94-52.77,0-.84.19-1.29.57-1.37l2.97-1.14c1.52-.46,4.15-.69,7.88-.69,12.26,0,22.27,2.63,30.04,7.88,9.97,6.78,14.96,17.13,14.96,31.07,0,9.36-1.45,16.39-4.34,21.07-2.89,4.68-6.51,8.38-10.85,11.08-4.34,2.7-8.85,4.74-13.53,6.11-4.68,1.37-8.95,2.25-12.79,2.63-3.84.38-6.53.57-8.05.57ZM580.28,521.1c2.66,0,6.68-.78,12.05-2.34,5.37-1.56,10.37-4.85,15.02-9.88,4.64-5.03,6.97-11.27,6.97-18.73,0-11.42-3.73-19.72-11.19-24.9-5.79-3.96-11.5-5.94-17.13-5.94-.84,0-2,.04-3.48.11-1.48.08-2.8.21-3.94.4-1.14.19-1.71.48-1.71.86.23,2.51.34,10.58.34,24.21,0,18.05.21,28.59.63,31.64.42,3.05,1.24,4.57,2.45,4.57Z"/><path class="d" d="M660.32,461.51c-5.26-.14-9.19.22-11.79,1.09-.31,0-.47.27-.49.84-.12,4.44.04,17.29.49,38.55.19,11.72.47,17.63.83,17.73.36.1,1.21.17,2.55.21,1.24.03,4.41-.02,9.52-.16,5.11-.14,10.14-1.09,15.08-2.84,4.95-1.75,9.28-4.82,13.02-9.21,3.73-4.38,5.69-9.97,5.88-16.77.52-18.97-11.17-28.79-35.08-29.45ZM678.13,504.56c-4.55,3.74-10.44,5.51-17.66,5.31-1.16-.03-1.9-1.26-2.22-3.7-.01-.09-.02-.2-.03-.3l-.17-8.06c-.02,1.46-.03,2.78-.02,3.94-.02-1.49-.03-3.3,0-5.4l.03,1.46c.02-1.05.04-2.16.07-3.37,9.44-.04,14.9-.39,16.37-1.03.31-.14.47-.56.49-1.24.03-1.14.33-3.47-.57-6.69,0-.15-2.06-.16-4.72-.31l-11.46-.1c.05-6.42-.02-10.55-.21-12.39.02-.72,2.41-1.02,7.18-.88,4.9.13,9.5,1.68,13.8,4.63,4.3,2.96,6.38,7.31,6.22,13.08-.17,6.28-2.54,11.3-7.09,15.04Z"/><path class="d" d="M722.67,534.56c-2.65,0-4.12-.19-4.41-.56-.29-.37-.43-10.49-.43-30.34,0-6.62.04-18.88.12-25.5.08-6.62.12-13.36.12-20.23,0-4.88-.04-8.48-.12-10.8,0-1.74.72-3.08,2.17-4.03,1.45-.95,4.73-1.43,9.87-1.43,14.56,0,24.45,1.37,29.66,4.1s7.82,6.74,7.82,12.04-2.61,9.33-7.82,12.59c-5.21,3.27-15.72,4.94-31.52,5.03l.25,37.41c.25,9.76.37,15.55.37,17.37,0,1.99-.5,3.14-1.49,3.47-1.49.58-3.02.87-4.59.87ZM728.5,465.26c11.99-.08,19.75-.74,23.27-1.99,3.52-1.24,5.27-3.1,5.27-5.58,0-2.65-1.39-4.43-4.16-5.34-2.77-.91-8.91-1.37-18.43-1.37-3.47,0-5.54.29-6.2.87,0,3.81.08,8.27.25,13.4ZM746.22,530.58c-.99,0-1.81-.02-2.45-.06-.65-.04-1.2-.06-1.66-.06s-.74-.06-.86-.17c-.11-.11-.36-4.4-.74-12.85-.69-11.72-1.03-20.71-1.03-26.95,0-2.82.11-4.49.34-5.03,17.82-1.45,28.1-2.17,30.84-2.17.84,0,1.27.06,1.31.17.04.11.13.29.28.51.76.99,1.14,2.78,1.14,5.37,0,.99-.04,1.49-.11,1.49s-2.55.15-7.42.46c-11.42.61-17.13,1.18-17.13,1.71l-.11,3.08c0,1.6.15,2.4.46,2.4,3.81-.46,9.06-.69,15.76-.69,1.22,0,1.83.23,1.83.69,0,2.21.04,3.62.11,4.23,0,2.13-.19,3.2-.57,3.2-2.97.08-8.57.34-16.79.8v8.8c0,4.34.23,6.51.69,6.51,11.65-.69,18.54-1.03,20.67-1.03,1.29,0,1.98.08,2.06.23.53,1.14.8,3.2.8,6.17,0,1.07-.15,1.6-.46,1.6-12.33,1.07-21.32,1.6-26.95,1.6Z"/><path class="d" d="M841.93,538.69c-8.07,0-14.77-3.35-20.1-10.05-2.21-2.74-4.11-5.48-5.71-8.22-4.11-6.78-7.9-11.06-11.36-12.85-3.47-1.79-7.56-2.68-12.28-2.68,0,1.14.11,3.62.34,7.42.3,5.94.46,10.62.46,14.05,0,1.75-1.48,2.63-4.45,2.63-2.89-.08-4.72-.27-5.48-.57,0-1.06-.27-6.17-.8-15.3-1.75-28.25-2.63-46.26-2.63-54.02,0-3.27.68-5.33,2.06-6.17,1.37-.84,6.51-1.26,15.42-1.26,15.91,0,26.65,3.62,32.21,10.85,3.2,4.26,4.8,8.76,4.8,13.48,0,11.88-7.46,20.06-22.39,24.56,3.5,2.74,6.51,6.13,9.02,10.16,5.1,7.69,9.48,12.91,13.13,15.65,2.51,1.9,5.44,2.86,8.79,2.86,2.74,0,5.18-.72,7.31-2.17,2.13-1.44,4-2.99,5.6-4.63,1.6-1.64,2.7-2.45,3.31-2.45.3,0,.86.4,1.66,1.2.8.8,1.52,1.94,2.17,3.43.65,1.49.97,2.65.97,3.48,0,.61-1.11,1.79-3.31,3.54-2.21,1.75-4.99,3.37-8.34,4.85-3.35,1.49-6.81,2.23-10.39,2.23ZM791.45,495.4c13.63-1.52,22.57-3.96,26.84-7.31,4.26-3.35,6.4-7.73,6.4-13.13,0-3.2-1.26-5.9-3.77-8.11-4.19-3.58-10.47-5.48-18.84-5.71-4.11,0-8.22.27-12.33.8,0,4.49.23,11.08.68,19.76.53,9.14.88,13.71,1.03,13.71ZM846.61,516.42c-.46,0-1.29-.08-2.51-.23-1.6-.23-2.4-.57-2.4-1.03,0-.61.95-11.27,2.86-31.98,1.98-21.17,3.39-31.75,4.23-31.75,1.83,0,8.91,7.23,21.24,21.7,13.63-14.01,21.05-21.02,22.27-21.02,1.29,0,2.47,5.16,3.54,15.48,1.07,10.32,3.56,33.61,4.09,42.94.53,9.33.87,15.32,1.03,17.99-2.28.23-4.19.53-5.71.91-1.22.23-2.06.34-2.51.34s-.69-.15-.69-.46c-1.75-27.87-4.63-56.87-5.24-60.07-11.12,10.89-16.98,16.33-17.59,16.33-9.67-10.2-14.58-15.3-14.73-15.3-2.06,28.48-3.65,43.67-4.8,45.57-.38.38-1.41.57-3.08.57Z"/><path class="d" d="M952.15,530.58c-.76,0-1.24-.15-1.43-.46-.19-.3-1.77-5.25-4.74-14.85-2.51-7.38-3.92-11.08-4.23-11.08-.99,0-3.77.27-8.34.8-7.08.46-10.62.8-10.62,1.03s-1.11,4.27-3.31,12.11c-2.21,7.84-3.54,11.76-4,11.76l-2.4-.46c-4.42-.46-6.62-.91-6.62-1.37,16.68-53.15,25.43-79.72,26.27-79.72.76,0,9.97,27.11,27.64,81.32,0,.23-.11.34-.34.34-1.29,0-2.74.1-4.34.28-1.6.19-2.78.29-3.54.29ZM925.66,497.23c6.85-.08,11.38-.46,13.59-1.14,0-1.6-.82-5.08-2.46-10.45-1.64-5.37-3.07-9.76-4.28-13.19-.46,1.14-1.71,5.16-3.77,12.05-2.06,6.89-3.08,11.14-3.08,12.74Z"/><path class="d" d="M997.26,530.12c-11.5,0-20.41-3.31-26.72-9.94-6.32-6.62-9.48-16.86-9.48-30.72,0-10.58,2.89-19.91,8.68-27.98,5.79-8.07,14.96-12.11,27.52-12.11,4.87,0,8.98.69,12.34,2.06,6.17,2.51,10.28,5.1,12.33,7.77,2.06,2.67,3.08,4.53,3.08,5.6,0,.23-.97,1.03-2.91,2.4-1.94,1.37-3.18,2.06-3.71,2.06-.08,0-.34-.3-.8-.91-.61-.91-1.73-2.11-3.37-3.6-1.64-1.49-3.73-2.87-6.28-4.17-2.55-1.29-5.58-1.94-9.08-1.94-9.44,0-16.58,2.97-21.41,8.91-4.84,5.94-7.25,13.52-7.25,22.73,0,10.74,2.47,18.69,7.42,23.87,4.95,5.18,11.31,7.77,19.07,7.77,3.5,0,6.78-.67,9.82-2,3.04-1.33,5.67-3.23,7.88-5.71,2.21-2.47,3.84-4.36,4.91-5.65.69-.76,1.1-1.14,1.26-1.14,4.03,3.35,6.05,5.22,6.05,5.6-2.06,4.49-5.6,8.47-10.62,11.93-5.03,3.47-11.27,5.2-18.73,5.2Z"/><path class="d" d="M1059.16,530.92c-6.7,0-11.86-1.98-15.48-5.94-3.62-3.96-6.11-10.05-7.48-18.27-1.37-8.22-2.06-18.69-2.06-31.41l.57-24.78,9.82-.57c-.53,7.01-.91,16.18-1.14,27.52,0,6.47.32,13.16.97,20.04.65,6.89,2.11,12.7,4.4,17.42,2.28,4.72,5.75,7.08,10.39,7.08,6.93,0,11.63-3.98,14.11-11.93,2.47-7.96,3.71-18.71,3.71-32.27,0-8.3-.11-17.02-.34-26.15,1.37-.38,2.74-.57,4.11-.57,1.14,0,2.7.15,4.68.46.53,13.93.8,24.29.8,31.07,0,11.27-1.07,20.54-3.2,27.81-2.13,7.27-5.08,12.51-8.85,15.7-3.77,3.2-8.78,4.8-15.02,4.8Z"/><path class="d" d="M1099.93,530.24c-2.36-.08-3.54-.15-3.54-.23-.15-9.52-.34-29.09-.57-58.71v-20.9c0-.3,1.14-.46,3.43-.46,3.5,0,5.29.38,5.37,1.14.46,11.12.68,21.89.68,32.32,0,3.2.27,15.72.8,37.58l18.5-.23c5.03,0,7.77.23,8.22.69.46.91.69,2.13.69,3.66,0,2.82-.38,4.23-1.14,4.23-1.45,0-4.42.11-8.91.34-8.38.38-16.22.57-23.53.57Z"/><path class="d" d="M1143.41,530.81c-.23-16.75-.34-30.3-.34-40.66l.11-30.61-6.4-.11-6.85.11c-2.59,0-4.07-.49-4.45-1.48-.38-.99-.57-2.78-.57-5.37,0-1.14.91-1.75,2.74-1.83,11.19-.84,21.97-1.26,32.32-1.26,5.56,0,8.62.27,9.19.8.57.53.86,1.83.86,3.88,0,2.36-.27,3.54-.8,3.54-1.29,0-4.13.15-8.51.46-4.38.31-7.29.5-8.74.57v34.84c0,6.47.11,18.58.34,36.32-3.5.53-6.47.8-8.91.8Z"/><path class="d" d="M1201.77,530.92c-6.7,0-11.86-1.98-15.48-5.94-3.62-3.96-6.11-10.05-7.48-18.27-1.37-8.22-2.06-18.69-2.06-31.41l.57-24.78,9.82-.57c-.53,7.01-.91,16.18-1.14,27.52,0,6.47.32,13.16.97,20.04.65,6.89,2.11,12.7,4.4,17.42,2.28,4.72,5.75,7.08,10.39,7.08,6.93,0,11.63-3.98,14.11-11.93,2.47-7.96,3.71-18.71,3.71-32.27,0-8.3-.11-17.02-.34-26.15,1.37-.38,2.74-.57,4.11-.57,1.14,0,2.7.15,4.68.46.53,13.93.8,24.29.8,31.07,0,11.27-1.07,20.54-3.2,27.81-2.13,7.27-5.08,12.51-8.85,15.7-3.77,3.2-8.78,4.8-15.02,4.8Z"/><path class="d" d="M1300.09,540.36c-8.32,0-15.23-3.46-20.73-10.36-2.28-2.83-4.24-5.65-5.89-8.48-4.24-6.99-8.15-11.4-11.72-13.25-3.57-1.84-7.79-2.77-12.66-2.77,0,1.18.12,3.73.35,7.66.31,6.12.47,10.95.47,14.48,0,1.81-1.53,2.71-4.59,2.71-2.98-.08-4.87-.27-5.65-.59,0-1.1-.28-6.36-.82-15.78-1.81-29.12-2.71-47.69-2.71-55.7,0-3.37.71-5.5,2.12-6.36,1.41-.86,6.71-1.3,15.9-1.3,16.41,0,27.48,3.73,33.21,11.19,3.3,4.4,4.95,9.03,4.95,13.9,0,12.25-7.69,20.69-23.08,25.32,3.61,2.83,6.71,6.32,9.3,10.48,5.26,7.93,9.77,13.31,13.54,16.13,2.59,1.96,5.61,2.94,9.07,2.94,2.83,0,5.34-.74,7.54-2.24,2.2-1.49,4.12-3.08,5.77-4.77,1.65-1.69,3.84-3.27,4.3-2.85.92.84,2.39,3.56,3.06,5.09.67,1.53,1,2.73,1,3.59,0,.63-1.14,1.85-3.42,3.65-2.28,1.8-5.14,3.47-8.6,5-3.46,1.53-7.03,2.3-10.72,2.3ZM1248.04,495.73c14.05-1.57,23.28-4.08,27.67-7.54,4.4-3.45,6.59-7.97,6.59-13.54,0-3.3-1.3-6.08-3.89-8.36-4.32-3.69-10.8-5.65-19.43-5.89-4.24,0-8.48.28-12.72.82,0,4.63.24,11.42.71,20.37.55,9.42.9,14.13,1.06,14.13ZM1291.84,514.92c-1.45,0-2.17-.19-2.17-.57,0-1.29,3.42-11.84,11.34-33.54,6.62-19.11,10.43-28.67,11.42-28.67.3,0,4.23,9.14,11.76,27.41,9.21,23.45,15.6,39.33,15.72,40.62.07.73-2.49,3.21-6.99,4.49-.88.25-1.54-.47-1.88-1.43-.34-.95-4.45-10.86-7.42-17.87-14.47,1.14-21.85,1.98-22.16,2.51-1.83,5.18-2.47,6.82-3,6.82l-6.62.23ZM1304.44,498.63c10.66-.76,15.99-1.48,15.99-2.17,0-.84-2.67-8.07-8-21.7-5.33,15.08-8,23.03-8,23.87Z"/><path class="d" d="M452.83,577.26c-6.87-17.4-7.68-17.4-8.11-17.4-.86,0-2.72,1.89-9.48,16.64-3.15,7.19-6.9,16.06-6.9,17.44,0,.8.47,1.76,2.71,1.76l3.49-.12c1,0,1.41-.68,2.85-4.78.9.2,3.69.31,12.39.31,1.31,3.94,3.75,11.28,3.75,11.28.31.93,1.08,1.4,2.28,1.4,1.36,0,2.62-.24,3.72-.71,1.18-.5,1.78-1.13,1.78-1.87,0-1.29-5.93-17.17-8.48-23.95ZM440.74,583.2c1.55-3.88,2.65-6.49,3.26-7.8l2.84,7.58-6.1.22Z"/><path class="d" d="M440.29,598.35l-15.98.12c-.25-11.85-.39-23.38-.43-36.29-.19-1.33-1.71-1.97-4.63-1.97-2.21,0-3.32.59-3.32,1.76v15.54c.09,16,.2,21.45.31,27.23,0,1.5,2.49,1.6,3.31,1.64h.01c3.86,0,10.66-.1,20.24-.31,2.3-.12,3.85-.19,4.61-.19,1.38,0,2.07-1.24,2.07-3.7,0-1.5-.26-2.49-.8-3.03-.34-.34-1.27-.79-5.4-.79Z"/><path class="d" d="M489.59,612.05c-8.54,0-12.8-.32-12.8-.95l-.11-.85c-.28-1.48-.42-6.21-.42-14.18,0-11.28.02-18.34.05-21.16.03-2.82.05-5.32.05-7.51,0-10.86.39-16.29,1.16-16.29,6.35-.85,13.01-1.27,20-1.27,6.49,0,11.64,1.61,15.45,4.81,3.81,3.21,5.71,6.79,5.71,10.74,0,2.75-.57,5.02-1.69,6.82-1.13,1.8-2.38,3.25-3.76,4.34-1.38,1.1-2.54,1.89-3.49,2.38-.95.49-1.43.85-1.43,1.06s.53.49,1.59.85c7.83,2.61,11.74,7.55,11.74,14.81,0,5.78-2.72,9.96-8.15,12.54-5.43,2.58-13.4,3.86-23.91,3.86ZM484.83,604.75c9.1,0,16.13-.65,21.11-1.96,4.97-1.3,7.46-3.68,7.46-7.14,0-3.03-.95-5.24-2.86-6.61-1.9-1.38-4.04-2.24-6.4-2.59-2.36-.35-4.25-.53-5.66-.53-3.46,0-6.6.18-9.42.53-2.82.35-4.41.78-4.76,1.27-.14,2.82-.21,5.15-.21,6.98,0,6.7.25,10.05.74,10.05ZM484.83,578.62c3.88,0,7.79-.46,11.74-1.38,3.95-.92,7.25-2.34,9.89-4.29,2.64-1.94,3.97-4.43,3.97-7.46,0-5.01-5.22-7.51-15.66-7.51-6,.07-9.45.56-10.37,1.48-.07.49-.1,2.96-.1,7.41,0,7.83.17,11.74.53,11.74Z"/><path class="d" d="M531.98,610.38c-2.02,0-3.22-.47-3.6-1.41-.19-1.41-.28-2.37-.28-2.89,0-1.55.61-2.56,1.83-3.03l1.83-.14c.28-13.35.42-20.99.42-22.92l-.07-11.71c-2.3,0-3.46-.66-3.46-1.98,0-1.13-.07-2.3-.21-3.53,0-1.17.52-1.86,1.55-2.05,3.01-.61,7.36-.92,13.05-.92.28,1.18.42,2.14.42,2.89,0,1.69-.11,2.9-.32,3.63-.21.73-1.19,1.16-2.93,1.3l-.07,5.57c0,3.24.05,7.24.14,11.99.19,6.91.28,12.01.28,15.31v1.76c.99.05,2.09.24,3.31.56-.09,1.79-.14,3.28-.14,4.48s-.49,2.08-1.48,2.64c-4.33.28-7.76.42-10.3.42Z"/><path class="d" d="M570.98,610.87c-5.27,0-9.72-1.39-13.37-4.16-3.64-2.77-6.09-5.65-7.33-8.64-1.25-2.99-1.87-6.69-1.87-11.11,0-3.15.73-6.84,2.19-11.07,1.46-4.23,4-7.98,7.62-11.25,3.62-3.27,8.56-4.9,14.81-4.9,7.05.14,12.8,2.47,17.24,6.98,4.44,4.51,6.74,10.25,6.88,17.21,0,10.25-3.69,17.91-11.07,22.99-3.86,2.63-8.89,3.95-15.09,3.95ZM571.34,602.69c6.25,0,10.86-2.4,13.82-7.19,2.21-3.57,3.31-7.26,3.31-11.07s-.61-6.79-1.83-9.1c-1.22-2.3-3.16-4.18-5.82-5.64-2.66-1.46-5.56-2.19-8.71-2.19-3.15.05-5.87,1.13-8.15,3.24-2.28,2.12-4.02,4.72-5.22,7.83-1.2,3.1-1.8,5.97-1.8,8.6,0,4.42,1.3,8.11,3.91,11.07,2.61,2.96,6.1,4.44,10.47,4.44Z"/><path class="d" d="M639.61,615.39c-5.22,0-9.55-2.16-12.98-6.49-1.36-1.69-2.54-3.36-3.53-5.01-2.3-3.81-4.37-6.18-6.21-7.12-1.83-.94-3.55-1.41-5.15-1.41.28,5.5.42,9.05.42,10.65,0,2.16-.32,3.3-.95,3.42s-1.68.18-3.14.18c-2.12,0-3.64-.26-4.59-.78,0-1.22-.17-4.54-.49-9.94-1.04-16.79-1.55-27.48-1.55-32.09,0-2.87.34-4.55,1.02-5.04s4.27-.74,10.76-.74c9.87,0,16.6,2.33,20.17,6.98,2.12,2.77,3.17,5.71,3.17,8.82,0,7.76-3.9,12.79-11.71,15.09.8.61,1.98,2.18,3.53,4.72,2.96,4.42,5.45,7.38,7.48,8.89,1.22.94,2.68,1.41,4.37,1.41,1.32,0,2.53-.36,3.63-1.09,1.1-.73,2.19-1.63,3.24-2.72,1.06-1.08,1.96-1.62,2.71-1.62.56,0,1.19.33,1.87.99.68.66,1.25,1.52,1.69,2.57.45,1.06.67,1.94.67,2.64,0,.8-.77,1.81-2.29,3.03-1.53,1.22-3.36,2.3-5.5,3.24-2.14.94-4.36,1.41-6.67,1.41ZM610.97,586.61c6.86-.66,11.41-1.87,13.65-3.63,2.23-1.76,3.35-4.03,3.35-6.81,0-1.46-.59-2.7-1.76-3.74-2.4-2.02-6-3.03-10.79-3.03-1.32,0-3.08.14-5.29.42,0,5.36.28,10.96.85,16.79ZM646.38,597.61c-.66,0-1.2-.01-1.62-.03s-.87-.04-1.34-.04-.87-.16-1.2-.49c-.33-.33-.63-3.36-.92-9.1-.42-11.33-.63-19.3-.63-23.91,0-1.93.21-3.46.63-4.58,10.44-.28,16.53-.42,18.27-.42,1.22,0,2.06.15,2.5.46.45.31.67,1.92.67,4.83,0,1.55-.45,2.35-1.34,2.4-5.5.28-9.55.59-12.13.92l-.21,8.75c3.15-.09,5.64-.14,7.48-.14,1.74,0,2.63,1.48,2.68,4.44,0,2.3-.59,3.46-1.76,3.46-1.88.05-4.44.19-7.69.42v4.65c5.69-.33,9.19-.49,10.51-.49,1.41,0,2.26.28,2.54.85.47.94.71,2.49.71,4.65,0,1.46-.52,2.26-1.55,2.4-6.77.66-11.97.99-15.59.99Z"/><path class="d" d="M691.09,610.03c-6.77,0-12.05-2.01-15.83-6.03-3.78-4.02-5.68-9.25-5.68-15.69,0-4.65.8-9.05,2.4-13.19,1.6-4.14,4.28-7.58,8.04-10.33,3.76-2.75,8.18-4.13,13.26-4.13,4.28,0,7.7.71,10.26,2.12,2.56,1.41,5.32,3.78,8.29,7.12-3.24,3.53-5.22,5.29-5.92,5.29-.52,0-1.29-.63-2.33-1.9-1.04-1.27-2.36-2.36-3.99-3.28-1.62-.92-3.82-1.38-6.59-1.38s-5.43.78-7.69,2.33-4.03,3.75-5.32,6.59c-1.29,2.85-1.94,6.12-1.94,9.84s.62,6.8,1.87,8.99c1.25,2.19,2.86,3.69,4.83,4.51,1.98.82,4.49,1.23,7.55,1.23,3.53,0,6.68-1.41,9.45-4.23,2.77-2.82,4.16-5.29,4.16-7.41l-9.66.35c-6.11,0-9.5-.33-10.16-.99-.61-2.3-.92-3.76-.92-4.37,0-1.32.75-2.07,2.26-2.26,1.08-.19,4.56-.33,10.44-.42,9.21,0,14.3.15,15.27.46.96.31,1.45,1.68,1.45,4.13,0,6.39-2.2,11.77-6.59,16.11-4.4,4.35-10.03,6.52-16.89,6.52Z"/><path class="d" d="M722.62,610.38c-2.02,0-3.22-.47-3.6-1.41-.19-1.41-.28-2.37-.28-2.89,0-1.55.61-2.56,1.83-3.03l1.83-.14c.28-13.35.42-20.99.42-22.92l-.07-11.71c-2.3,0-3.46-.66-3.46-1.98,0-1.13-.07-2.3-.21-3.53,0-1.17.52-1.86,1.55-2.05,3.01-.61,7.36-.92,13.05-.92.28,1.18.42,2.14.42,2.89,0,1.69-.11,2.9-.32,3.63-.21.73-1.19,1.16-2.93,1.3l-.07,5.57c0,3.24.05,7.24.14,11.99.19,6.91.28,12.01.28,15.31v1.76c.99.05,2.09.24,3.31.56-.09,1.79-.14,3.28-.14,4.48s-.49,2.08-1.48,2.64c-4.33.28-7.76.42-10.3.42Z"/><path class="d" d="M761.62,610.87c-5.27,0-9.72-1.39-13.37-4.16-3.64-2.77-6.09-5.65-7.33-8.64-1.25-2.99-1.87-6.69-1.87-11.11,0-3.15.73-6.84,2.19-11.07,1.46-4.23,4-7.98,7.62-11.25,3.62-3.27,8.56-4.9,14.81-4.9,7.05.14,12.8,2.47,17.24,6.98,4.44,4.51,6.74,10.25,6.88,17.21,0,10.25-3.69,17.91-11.07,22.99-3.86,2.63-8.89,3.95-15.09,3.95ZM761.98,602.69c6.25,0,10.86-2.4,13.82-7.19,2.21-3.57,3.31-7.26,3.31-11.07s-.61-6.79-1.83-9.1c-1.22-2.3-3.16-4.18-5.82-5.64-2.66-1.46-5.56-2.19-8.71-2.19-3.15.05-5.87,1.13-8.15,3.24-2.28,2.12-4.02,4.72-5.22,7.83-1.2,3.1-1.8,5.97-1.8,8.6,0,4.42,1.3,8.11,3.91,11.07,2.61,2.96,6.1,4.44,10.47,4.44ZM762.28,561.4c-.75-.42-1.36-1.12-1.83-2.08-.47-.96-.7-1.73-.7-2.29,0-.85,2.1-2.25,6.31-4.2,4.21-1.95,6.76-2.93,7.65-2.93.7,0,1.38.69,2.01,2.08.63,1.39.95,2.43.95,3.14,0,.94-2.2,2.22-6.59,3.84-4.4,1.62-6.99,2.43-7.79,2.43Z"/><path class="d" d="M823.26,610.45c-.85,0-2.09-1.08-3.74-3.24-1.65-2.16-4.27-5.93-7.86-11.32-3.6-5.38-6.92-10.59-9.98-15.62l.07,3.6c0,4.84-.01,8.98-.03,12.41-.02,3.43-.08,8.18-.18,14.25l-4.09-.21c-1.93-.05-3.22-.54-3.88-1.48v-.64c-.14-1.36-.26-4.47-.35-9.31,0-4.37.08-9.51.25-15.41.16-5.9.34-11.13.53-15.69.19-4.56.71-7.19,1.55-7.9,1.46,0,3.62,2.08,6.49,6.24,2.87,4.16,5.64,8.36,8.32,12.59,2.68,4.23,5.08,8.18,7.19,11.85,0-.56-.01-1.88-.03-3.95-.02-2.07-.13-5.38-.32-9.95-.19-4.56-.28-8.25-.28-11.07,0-2.16.31-3.65.92-4.48.61-.82,1.74-1.23,3.39-1.23,2.82,0,4.23.28,4.23.85s.03.92.11,1.06c.07.14.13,1.93.18,5.36,0,11.33-.02,19.44-.07,24.33-.1,12.08-.89,18.41-2.4,18.97Z"/><path class="d" d="M848.37,596.12c-.85,0-1.57-.1-2.16-.3-.59-.2-1.04-4.07-1.36-11.6-.53-12.24-.8-19.63-.8-22.18,0-1.3.48-2.04,1.44-2.21,1.39-.57,3.46-.85,6.24-.85,12.95,0,19.43,6.03,19.43,18.1,0,4.31-.99,7.89-2.96,10.75-1.97,2.86-4.29,4.89-6.96,6.08-2.67,1.19-5.32,1.86-7.96,2-2.64.14-4.28.21-4.92.21ZM860.31,585.27c2.17-2.17,3.24-5.14,3.2-8.89-.06-6.33-4.02-9.82-11.8-9.82.27,12.52.58,20.05.84,21.96,3,0,5.58-1.09,7.75-3.26Z"/><path class="d" d="M907.23,594.62c-2.81,0-4.22-.73-4.22-1.86l-.08-10.04c0-5.96.05-12.79.17-21.56,0-1.35,1.38-2.03,4.13-2.03,3.88,0,3.87.57,4.19,2.71.32,2.15.25,24.15.25,24.15l5.83-.14c2.53,0,4.16.34,4.89,1.01.51,1.07.69,2.2.69,3.83,0,3.09-.84,3.56-2.53,3.56-.96,0-3.04.08-6.24.25-2.08.06-3.95.08-7.08.08Z"/><path class="d" d="M879.02,595.35c-1.82-.09-2.73-1.07-2.73-2.94l.14-11.9c0-1.63-.19-7.58-.56-18.92,0-1.59,2.53-2.38,8.86-2.38,4.61,0,6.48.13,11.09.4.91.05,1.65.76,1.73,1.67l.42,4.25c0,1.35-1.12,2.05-3.36,2.1-6.81.23-3.08.35-9.7.35-.09.84-.14,2.87-.14,6.09,2.24,0-1.85-.19,8.65-.56.84,0,1.51.06,1.99.18.49.12.74.52.74,1.22-.14,4.53-.79,6.79-1.96,6.79-12.7.19-8.89.3-9.49.35l-.07,4.76s4.97-.28,9.07-.28c2.15,0,3.46.3,3.95.91.49.61.74,2.29.74,5.04,0,1.07-.4,1.8-1.19,2.17-.98.47-17.38.65-18.17.7Z"/><path class="d" d="M939.81,617.76c-.21-15.52-.32-28.07-.32-37.66l.11-28.35-5.92-.11-6.35.11c-2.4,0-3.77-.46-4.13-1.38-.35-.92-.53-2.57-.53-4.97,0-1.06.85-1.62,2.54-1.69,10.37-.78,20.35-1.16,29.94-1.16,5.15,0,7.99.25,8.52.74.53.49.79,1.69.79,3.6,0,2.19-.25,3.28-.74,3.28-1.2,0-3.83.14-7.88.42-4.06.28-6.75.46-8.09.53v32.27c0,6,.1,17.21.32,33.64-3.24.49-6,.74-8.25.74Z"/><path class="d" d="M972.4,610.45c-7.66-.05-12.11-.26-13.33-.63-.52-.94-.92-3.62-1.2-8.04-.52-10.86-.78-20.83-.78-29.9,0-4.94.23-8.09.7-9.45.56-.7,2.9-1.26,7.02-1.66,4.11-.4,8.97-.6,14.56-.6,4.98.05,7.55.56,7.69,1.55.28,1.98.42,3.43.42,4.37,0,1.69-1.03,2.54-3.1,2.54-9.97,0-16.13.12-18.48.35l.14,8.39c4.14-.28,8.06-.42,11.78-.42,2.35.05,3.62.52,3.81,1.41.56,2.07.85,3.53.85,4.37,0,.99-.35,1.65-1.06,1.98-1.04.52-4.16.85-9.38.99l-5.71.35c0,9.92.12,15.3.35,16.15l21.79-.42c.19,1.79.28,3.03.28,3.74,0,1.13-.07,2.1-.21,2.93-.14.82-.68,1.35-1.62,1.59-1.22.28-6.07.42-14.53.42Z"/><path class="d" d="M1030.16,616.38c-2.92,0-5.45-1.27-7.62-3.81-.85-.99-1.43-1.88-1.76-2.68-1.18.28-2.96.45-5.36.49-6.91,0-12.53-2.23-16.86-6.7-4.33-4.47-6.56-10.16-6.7-17.07,0-4.42.86-8.59,2.57-12.52,1.72-3.93,4.47-7.17,8.25-9.73,3.78-2.56,8.69-3.84,14.71-3.84,5.36,0,10.18,1.76,14.46,5.29,5.08,4.23,7.62,10.23,7.62,17.99,0,3.48-.72,7.29-2.15,11.43-1.43,4.14-3.91,7.66-7.44,10.58-.89.75-1.46,1.18-1.69,1.27.52.94,1.88,1.41,4.09,1.41,1.6,0,2.4.94,2.4,2.82,0,.89-.15,1.96-.46,3.21-.31,1.25-1.66,1.87-4.06,1.87ZM1016.34,603.05l2.12-.07c-.8-2.16-2.44-3.43-4.94-3.81-1.03-.09-1.65-.38-1.83-.85-.19-.47-.28-.89-.28-1.27,0-1.27.33-2.62.99-4.06.66-1.43,1.53-2.15,2.61-2.15.56,0,1.55.31,2.96.92,4.09,2.12,6.56,4.73,7.4,7.83.38-.33,1.46-1.98,3.24-4.94,1.79-2.96,2.68-6.94,2.68-11.92,0-2.35-.54-4.64-1.62-6.88-1.08-2.23-2.68-4.07-4.8-5.5-2.12-1.43-4.65-2.15-7.62-2.15-6.21,0-10.56,2.03-13.05,6.1-2.49,4.07-3.74,8.03-3.74,11.88,0,4.8,1.56,8.81,4.69,12.02,3.13,3.22,6.85,4.83,11.18,4.83Z"/><path class="d" d="M1061.33,610.8c-4.42,0-7.82-1.31-10.19-3.91-2.37-2.61-3.98-6.44-4.83-11.5-.85-5.05-1.27-11.39-1.27-19.01l.42-16.01,8.68-.49c-.38,5.17-.63,11.12-.78,17.84,0,3.76.19,7.63.56,11.6.38,3.97,1.16,7.18,2.36,9.63,1.2,2.44,2.88,3.69,5.04,3.74,3.39,0,5.76-2.16,7.12-6.49,1.36-4.33,2.05-11.78,2.05-22.36,0-2.21-.09-6.37-.28-12.48,1.65-.47,2.94-.71,3.88-.71.75,0,2.14.17,4.16.49.33,9.03.49,16.46.49,22.29,0,1.27-.05,3.01-.14,5.22-.1,2.21-.4,4.55-.92,7.02-.52,2.47-1.39,4.84-2.61,7.12-1.22,2.28-2.94,4.19-5.15,5.71-2.21,1.53-5.08,2.29-8.61,2.29Z"/><path class="d" d="M1100.9,610.45c-7.66-.05-12.11-.26-13.33-.63-.52-.94-.92-3.62-1.2-8.04-.52-10.86-.78-20.83-.78-29.9,0-4.94.23-8.09.7-9.45.56-.7,2.9-1.26,7.02-1.66,4.11-.4,8.97-.6,14.56-.6,4.98.05,7.55.56,7.69,1.55.28,1.98.42,3.43.42,4.37,0,1.69-1.03,2.54-3.1,2.54-9.97,0-16.13.12-18.48.35l.14,8.39c4.14-.28,8.06-.42,11.78-.42,2.35.05,3.62.52,3.81,1.41.56,2.07.85,3.53.85,4.37,0,.99-.35,1.65-1.06,1.98-1.04.52-4.16.85-9.38.99l-5.71.35c0,9.92.12,15.3.35,16.15l21.79-.42c.19,1.79.28,3.03.28,3.74,0,1.13-.07,2.1-.21,2.93-.14.82-.68,1.35-1.62,1.59-1.22.28-6.07.42-14.53.42Z"/><path class="d" d="M1152.81,610.45c-.85,0-2.09-1.08-3.74-3.24-1.65-2.16-4.27-5.93-7.86-11.32-3.6-5.38-6.92-10.59-9.98-15.62l.07,3.6c0,4.84-.01,8.98-.03,12.41-.02,3.43-.08,8.18-.18,14.25l-4.09-.21c-1.93-.05-3.22-.54-3.88-1.48v-.64c-.14-1.36-.26-4.47-.35-9.31,0-4.37.08-9.51.25-15.41.16-5.9.34-11.13.53-15.69.19-4.56.71-7.19,1.55-7.9,1.46,0,3.62,2.08,6.49,6.24,2.87,4.16,5.64,8.36,8.32,12.59,2.68,4.23,5.08,8.18,7.19,11.85,0-.56-.01-1.88-.03-3.95-.02-2.07-.13-5.38-.32-9.95-.19-4.56-.28-8.25-.28-11.07,0-2.16.31-3.65.92-4.48.61-.82,1.74-1.23,3.39-1.23,2.82,0,4.23.28,4.23.85s.03.92.11,1.06c.07.14.13,1.93.18,5.36,0,11.33-.02,19.44-.07,24.33-.1,12.08-.89,18.41-2.4,18.97Z"/><path class="d" d="M1167.76,610.59c-1.18,0-2.05-.1-2.61-.28-.71-.28-1.27-5.48-1.69-15.59-.75-17.3-1.13-27.74-1.13-31.32,0-1.27.47-2.12,1.41-2.54,1.18-.47,3.43-.7,6.77-.7,7.57,0,13.78,1.62,18.62,4.87,6.3,4.28,9.45,10.81,9.45,19.61,0,5.83-.92,10.23-2.75,13.19-1.83,2.96-4.12,5.3-6.84,7.02-2.73,1.72-5.54,2.99-8.43,3.81-2.89.82-5.5,1.35-7.83,1.59-2.33.23-3.98.35-4.97.35ZM1171.85,602.2c1.36-.05,3.54-.49,6.52-1.34,2.98-.85,5.75-2.64,8.29-5.4,2.54-2.75,3.81-6.17,3.81-10.26,0-6.25-2-10.79-5.99-13.61-3.2-2.21-6.32-3.31-9.38-3.31l-3.88.07.07,13.75c0,10.63.19,17.33.56,20.1Z"/><path class="d" d="M1229.05,610.59c-.94,0-1.55-.24-1.83-.71-.09-.14-1.76-5.12-5.01-14.95-.52,0-1.9.17-4.16.49-2.21.19-3.61.33-4.2.42-.59.1-1.58,2.5-2.96,7.23-1.39,4.72-2.62,7.09-3.7,7.09l-1.48-.28c-3.43-.33-5.15-1.13-5.15-2.4,10.16-32.3,15.82-48.45,17-48.45s7.08,16.46,17.84,49.37c0,1.22-.54,1.83-1.62,1.83-.71,0-1.54.06-2.5.18-.96.12-1.7.18-2.22.18ZM1214.94,588.09c2.87-.09,4.56-.23,5.08-.42,0-.09-.34-1.38-1.02-3.84-.68-2.47-1.23-4.17-1.66-5.11-1.51,5.78-2.3,8.91-2.4,9.38Z"/><path class="d" d="M1247.74,611.09c-4.28,0-6.62-.19-7.02-.56-.4-.38-.68-.72-.85-1.02-.17-.31-.25-.83-.25-1.59.14-5.88.75-15.56,1.83-29.06,1.32-12.98,2.66-19.47,4.02-19.47.94,0,3.88,4.47,8.82,13.4l4.44,8.6,5.85-12.27c3.15-6.44,5.1-9.66,5.85-9.66,1.79,0,3.69,7.71,5.71,23.13,2.02,14.11,3.03,23.16,3.03,27.15-2.54.85-4.47,1.27-5.78,1.27s-2.01-.22-2.22-.67c-.21-.45-.32-.83-.32-1.16-1.88-18.76-2.85-28.73-2.89-29.9-5.08,9.64-8.09,14.46-9.03,14.46-1.36,0-3.22-2.12-5.57-6.35l-3.88-7.12c-.56,4.65-1.15,14.93-1.76,30.82Z"/><path class="d" d="M1310.01,610.59c-.94,0-1.55-.24-1.83-.71-.09-.14-1.76-5.12-5.01-14.95-.52,0-1.9.17-4.16.49-2.21.19-3.61.33-4.2.42-.59.1-1.58,2.5-2.96,7.23-1.39,4.72-2.62,7.09-3.7,7.09l-1.48-.28c-3.43-.33-5.15-1.13-5.15-2.4,10.16-32.3,15.82-48.45,17-48.45s7.08,16.46,17.84,49.37c0,1.22-.54,1.83-1.62,1.83-.71,0-1.54.06-2.5.18-.96.12-1.7.18-2.22.18ZM1295.91,588.09c2.87-.09,4.56-.23,5.08-.42,0-.09-.34-1.38-1.02-3.84-.68-2.47-1.23-4.17-1.66-5.11-1.51,5.78-2.3,8.91-2.4,9.38Z"/><path class="d" d="M375.45,596.86c-.33,0-.58,0-.77-.01-.89-.03-1.42-.08-1.7-.16-.63-.18-.8-.23-.93-11.29-.22-12.72-.28-20.52-.2-23.2.02-.8.46-1.11.88-1.15,1.32-.43,3.24-.66,5.72-.66.47,0,.96,0,1.47.02,7.3.23,12.83,1.9,16.45,4.97,3.64,3.09,5.4,7.63,5.21,13.5-.13,4.22-1.39,7.74-3.73,10.48-2.32,2.7-5.06,4.62-8.13,5.7-3.03,1.06-6.15,1.63-9.28,1.71-2.33.06-3.99.09-4.99.09ZM379.11,582.91l.08,4.83v.11c.17,1.19.47,1.63.7,1.63.24,0,.48.01.72.01,3.83,0,7.01-1.01,9.46-3.01,2.58-2.1,3.94-4.97,4.05-8.52.1-3.21-1.05-5.66-3.42-7.31-2.46-1.7-5.13-2.61-7.93-2.7-.49-.02-.93-.02-1.33-.02-1.39,0-2.01.1-2.28.16.09,1.12.12,3.25.09,6.49l6.22.08c.49.03.93.05,1.31.07h.17c1.55.08,2.01.1,2.01.75.46,1.67.39,2.99.34,3.78l-.02.32c-.02.68-.25,1.12-.69,1.32-.62.27-2.26.62-9.47.64-.01.47-.02.93-.03,1.36Z"/><path class="d" d="M471.06,302.23c-5.83-4.75-10.86-10.44-14.85-16.86h0c-6.44-10.37-10.16-22.59-10.16-35.69,0-13.1,3.72-25.33,10.16-35.69h0c3.98-6.42,9.01-12.11,14.84-16.86,2.86-2.33,1.62-6.96-2.02-7.55-7.43-1.19-14.63-3.61-21.28-7.17h0c-10.76-5.76-20.1-14.49-26.65-25.83-6.55-11.34-9.44-23.79-9.04-35.99h0c.24-7.55,1.75-15,4.43-22.02,1.31-3.45-2.08-6.84-5.53-5.53-7.03,2.68-14.48,4.18-22.02,4.43h0c-12.19.39-24.64-2.5-35.99-9.05-11.34-6.55-20.07-15.89-25.83-26.64h0c-3.56-6.66-5.98-13.86-7.18-21.29-.59-3.64-5.22-4.89-7.55-2.02-4.75,5.83-10.44,10.86-16.85,14.84h0c-10.36,6.44-22.59,10.16-35.69,10.16s-25.33-3.72-35.69-10.16h0c-6.41-3.98-12.11-9.01-16.86-14.84-2.33-2.86-6.96-1.62-7.55,2.02-1.19,7.42-3.61,14.63-7.17,21.28h0c-5.75,10.76-14.48,20.1-25.82,26.65-11.34,6.55-23.79,9.44-35.99,9.04h0c-7.54-.24-14.99-1.75-22.02-4.42-3.45-1.31-6.84,2.08-5.53,5.53,2.68,7.03,4.18,14.48,4.43,22.02h0c.4,12.2-2.49,24.65-9.04,35.99-6.55,11.34-15.89,20.07-26.65,25.82h0c-6.66,3.57-13.86,5.99-21.28,7.18-3.64.59-4.89,5.22-2.02,7.55,5.83,4.75,10.86,10.44,14.85,16.85h0c6.44,10.37,10.16,22.6,10.16,35.69,0,13.1-3.72,25.33-10.16,35.69h0c-3.98,6.42-9.01,12.11-14.84,16.86-2.86,2.33-1.62,6.96,2.02,7.55,7.43,1.19,14.63,3.61,21.28,7.17h0c10.76,5.76,20.1,14.49,26.65,25.83,6.55,11.34,9.44,23.79,9.04,35.99h0c-.24,7.55-1.75,15-4.43,22.02-1.31,3.45,2.08,6.84,5.53,5.53,7.03-2.68,14.48-4.18,22.02-4.43h0c12.19-.39,24.65,2.5,35.99,9.05,11.34,6.55,20.07,15.89,25.83,26.65h0c3.56,6.66,5.98,13.86,7.17,21.28.59,3.64,5.22,4.89,7.55,2.02,4.75-5.83,10.44-10.86,16.86-14.84h0c10.36-6.44,22.59-10.16,35.69-10.16,13.1,0,25.33,3.72,35.69,10.16h0c6.41,3.98,12.11,9.01,16.86,14.84,2.33,2.86,6.96,1.62,7.55-2.02,1.19-7.42,3.61-14.63,7.17-21.28h0c5.75-10.76,14.48-20.1,25.83-26.65,11.34-6.55,23.79-9.44,35.99-9.04h0c7.54.24,14.99,1.75,22.02,4.42,3.45,1.31,6.84-2.08,5.53-5.53-2.68-7.03-4.18-14.48-4.43-22.02h0c-.4-12.2,2.49-24.65,9.04-35.99,6.55-11.34,15.89-20.07,26.65-25.82h0c6.65-3.57,13.86-5.99,21.28-7.18,3.64-.59,4.89-5.22,2.02-7.55ZM440.27,197.77c2.11,1.49,2.87,4.3,1.78,6.65-5.3,11.48-14.08,21.49-25.86,28.29-22.08,12.75-48.63,10.72-68.22-3.01-2.18-1.53-2.94-4.38-1.82-6.79,10.1-21.68,32.08-36.72,57.57-36.71,13.6,0,26.21,4.28,36.54,11.57ZM352.71,122.76c11.78-6.8,24.84-9.4,37.43-8.25,2.58.23,4.64,2.29,4.87,4.87,1.15,12.59-1.45,25.65-8.25,37.43-12.74,22.08-36.75,33.6-60.58,31.5-2.65-.23-4.74-2.33-4.97-4.97-2.1-23.83,9.42-47.84,31.5-60.58ZM276.81,93.33c6.8-11.78,16.81-20.56,28.29-25.86,2.35-1.09,5.16-.33,6.65,1.78,7.29,10.33,11.57,22.94,11.57,36.54,0,25.49-15.03,47.48-36.71,57.57-2.41,1.12-5.27.36-6.79-1.82-13.73-19.59-15.76-46.14-3.01-68.22ZM207.93,69.26c1.49-2.11,4.3-2.87,6.65-1.78,11.48,5.3,21.49,14.08,28.29,25.86,12.75,22.08,10.72,48.63-3.01,68.22-1.53,2.18-4.38,2.94-6.79,1.82-21.68-10.1-36.72-32.08-36.71-57.57,0-13.6,4.28-26.21,11.57-36.54ZM124.67,119.38c.23-2.58,2.29-4.63,4.87-4.87,12.59-1.15,25.65,1.45,37.43,8.25,22.08,12.74,33.6,36.75,31.51,60.58-.23,2.65-2.33,4.74-4.97,4.97-23.83,2.1-47.84-9.42-60.58-31.5-6.8-11.78-9.4-24.84-8.25-37.43ZM79.41,197.77c10.33-7.29,22.94-11.57,36.54-11.57,25.49,0,47.48,15.03,57.57,36.71,1.12,2.41.36,5.27-1.82,6.79-19.59,13.73-46.14,15.76-68.22,3.01-11.78-6.8-20.56-16.81-25.86-28.29-1.09-2.35-.33-5.16,1.78-6.65ZM79.42,301.59c-2.11-1.49-2.87-4.3-1.78-6.65,5.3-11.48,14.08-21.49,25.86-28.29,22.08-12.75,48.63-10.72,68.22,3.01,2.18,1.53,2.94,4.38,1.82,6.79-10.1,21.68-32.08,36.72-57.57,36.71-13.6,0-26.21-4.28-36.54-11.57ZM166.98,376.59c-11.78,6.8-24.84,9.4-37.43,8.25-2.58-.23-4.64-2.29-4.87-4.87-1.15-12.59,1.45-25.65,8.25-37.43,12.74-22.08,36.75-33.6,60.58-31.5,2.65.23,4.74,2.33,4.97,4.97,2.1,23.83-9.42,47.84-31.5,60.58ZM242.88,406.02c-6.8,11.78-16.81,20.56-28.29,25.86-2.35,1.09-5.16.33-6.65-1.78-7.29-10.33-11.57-22.94-11.57-36.54,0-25.49,15.03-47.48,36.71-57.57,2.41-1.12,5.27-.36,6.79,1.82,13.73,19.59,15.76,46.14,3.01,68.22ZM311.76,430.1c-1.49,2.11-4.3,2.87-6.65,1.78-11.48-5.3-21.49-14.08-28.29-25.86-12.75-22.08-10.72-48.63,3.01-68.22,1.53-2.18,4.38-2.94,6.79-1.82,21.68,10.1,36.72,32.08,36.71,57.57,0,13.6-4.28,26.21-11.57,36.54ZM395.02,379.97c-.23,2.58-2.29,4.63-4.87,4.87-12.59,1.15-25.65-1.45-37.43-8.25-22.08-12.74-33.6-36.75-31.51-60.58.23-2.65,2.33-4.74,4.97-4.97,23.83-2.1,47.84,9.42,60.58,31.5,6.8,11.78,9.4,24.84,8.25,37.43ZM440.27,301.59c-10.33,7.29-22.94,11.57-36.54,11.57-25.49,0-47.48-15.03-57.58-36.71-1.12-2.41-.36-5.27,1.82-6.79,19.59-13.73,46.14-15.76,68.22-3.01,11.78,6.8,20.56,16.81,25.86,28.29,1.09,2.35.33,5.16-1.78,6.65ZM359.3,421.93c-24.29,14.02-32.61,45.08-18.59,69.37,14.02,24.29,45.08,32.61,69.37,18.59,24.29-14.02,32.61-45.08,18.59-69.37-14.02-24.29-45.08-32.61-69.37-18.59ZM494.53,332.4c-21.86-12.62-49.81-5.13-62.43,16.73-12.62,21.86-5.13,49.81,16.73,62.43,21.86,12.62,49.81,5.13,62.43-16.73,12.62-21.86,5.13-49.81-16.73-62.43ZM499.37,209.05c-22.44,0-40.63,18.19-40.63,40.63s18.19,40.63,40.63,40.63c22.44,0,40.63-18.19,40.63-40.63,0-22.44-18.19-40.63-40.63-40.63ZM480.66,163.24c17-9.82,22.83-31.56,13.01-48.56-9.82-17-31.56-22.83-48.56-13.01-17,9.82-22.83,31.56-13.01,48.56,9.82,17,31.56,22.83,48.56,13.01ZM359.29,77.43c14.57,8.41,33.21,3.42,41.62-11.15,8.41-14.57,3.42-33.21-11.15-41.62-14.57-8.41-33.21-3.42-41.62,11.15-8.41,14.57-3.42,33.21,11.15,41.62ZM259.84,50.78c14.02,0,25.39-11.37,25.39-25.39,0-14.02-11.37-25.39-25.39-25.39-14.02,0-25.39,11.37-25.39,25.39,0,14.02,11.37,25.39,25.39,25.39ZM259.85,448.58c-25.24,0-45.7,20.46-45.7,45.7,0,25.24,20.46,45.7,45.71,45.7,25.24,0,45.7-20.46,45.7-45.7,0-25.24-20.46-45.7-45.71-45.7ZM160.39,421.93c-19.43-11.22-44.28-4.56-55.5,14.87-11.22,19.43-4.56,44.28,14.87,55.5,19.43,11.22,44.28,4.56,55.5-14.87,11.22-19.43,4.56-44.28-14.87-55.49ZM39.03,336.12c-17,9.82-22.83,31.56-13.01,48.56,9.82,17,31.56,22.83,48.56,13.01,17-9.82,22.83-31.56,13.01-48.56-9.82-17-31.56-22.83-48.56-13.01ZM60.94,249.68c0-16.83-13.64-30.47-30.47-30.47C13.64,219.21,0,232.85,0,249.68c0,16.83,13.64,30.47,30.47,30.47,16.83,0,30.47-13.64,30.47-30.47ZM52.9,159.52c12.14,7.01,27.67,2.85,34.69-9.29,7.01-12.14,2.85-27.67-9.29-34.68-12.14-7.01-27.67-2.85-34.69,9.29-7.01,12.14-2.85,27.67,9.29,34.68ZM160.39,77.43c9.72-5.61,13.04-18.03,7.43-27.75-5.61-9.72-18.03-13.04-27.75-7.43-9.72,5.61-13.04,18.03-7.43,27.75,5.61,9.72,18.03,13.04,27.75,7.43Z"/></g></svg>