<?xml version="1.0" encoding="UTF-8"?><svg id="b" xmlns="http://www.w3.org/2000/svg" width="1063.74" height="397.09" viewBox="0 0 1063.74 397.09"><defs><style>.d{fill:#fff;}.e{fill:#0f395f;}</style></defs><g id="c"><path class="d" d="M1063.44,308.27c4.34-24.36-39.72-45.83-61.91-23.02-.97,1-2.57.93-3.44-.15-17-20.87-55.08-16.17-67.47,7.19-.72,1.35-2.58,1.62-3.63.51-13.78-14.51-36.79-15.27-51.3-1.14-.55.54-1.33.77-2.09.62-2.51-.49-5.14-.69-7.74-.6-.9.03-1.73-.5-2.1-1.32-7.13-15.7-29.85-16.04-37.99-1.4-.75,1.35-2.56,1.65-3.64.55-2.25-2.31-4.84-4.23-7.72-5.77-1.59-.85-1.58-3.1-.03-4,5.15-2.98,9.08-8.34,10.4-14.19.3-1.34,1.71-2.12,3.01-1.64,81.67,29.83,71.97-111.98-2.17-81.04-1.57.66-3.27-.52-3.19-2.22.21-4.18-.24-8.53-1.99-12.8-.32-.78-.17-1.68.39-2.31,1.64-1.88,2.99-4.11,3.93-6.45.45-1.13,1.68-1.76,2.83-1.37,80.76,26.88,69.76-126.66-8.42-86.49-1.59.81-3.44-.43-3.31-2.21,2.79-40.08-47.46-40.33-44.54,2.16.09,1.36-1,2.49-2.36,2.45-12.91-.42-25.55,5.35-32.57,15.86-.88,1.31-2.77,1.35-3.73.1-9.72-12.65-19.21-15.38-28.52-15.2-.74.01-1.43-.33-1.89-.9-7.17-8.88-20.87-10.54-29.63-3.3-.98.81-2.39.71-3.23-.25-12.33-14.16-39.73-15.61-54.98-4.25-.94.7-2.22.58-3.04-.26-2.74-2.8-6.21-4.78-10.09-5.71-.82-.19-1.46-.83-1.66-1.65-4.92-20.61-37.85-21.21-42.25,1.43-.16.81-.77,1.43-1.56,1.69-3.87,1.28-8.02,4.99-10.35,9.21-.68,1.23-2.31,1.49-3.42.63-6.94-5.41-14.8-7.82-23.22-7.1-.74.06-1.48-.19-1.95-.75-5.14-6.06-14.03-8.97-21.93-7.27-1.15.25-2.27-.37-2.68-1.47-5.8-15.46-30.19-17.42-41.48-5.77-.76.79-1.96.96-2.88.37-8.97-5.73-21.92-8.79-35.75-8.6-.61,0-1.19-.24-1.64-.66-8.54-8.09-24.66-7.11-31.88,2.16-.27.35-.63.61-1.05.77-18.5,6.77-17.21,34.42.77,40.6.76.26,1.3.93,1.44,1.72,1.18,6.29,2.92,15.35,4.43,24.61.43,2.62-3.2,3.75-4.33,1.34C322.29-12.25,150.5-37.13,58.45,57.91c-.89.92-2.35.94-3.25.04-13.06-13.01-37.75-24.36-50.41-3.75-9.24,15.36.16,39.58,11.64,63.99.27.58.29,1.24.05,1.83-86.14,211.11,186.54,375.65,334.77,208.14,1.3-1.47,3.73-.74,3.98,1.21,2.79,22.07,24.47,36.25,44.8,25.96,1.68-.85,3.62.57,3.29,2.42-7.96,45.04,48.83,47.39,42.72,4.48-.25-1.76,1.48-3.16,3.12-2.47,8.17,3.43,17.83,3.64,26.13.5.98-.37,2.06-.01,2.67.83,8.63,12.02,27.5,9.62,34.81.13.78-1.01,2.21-1.16,3.22-.39,24.23,18.49,73.34-6.29,55.9-37.47-.42-.75-.4-1.65.05-2.37,1.12-1.81,2.09-3.77,2.88-5.79.66-1.69,2.95-1.98,3.99-.49,7.75,11.14,19.78,17.13,28.45,26.12,1.01,1.04.83,2.75-.39,3.53-7.29,4.65-24.22.53-26.95,23.66-.02.16-.02.34-.01.5,2.85,36.7,48.78,19.54,62.41-2.16.73-1.16,2.26-1.44,3.36-.62,11.05,8.29,27.09,8.73,39.29,2.56,1.1-.55,2.45-.16,3.02.93,8.86,16.74,38.04,13.76,40.97-6.33.01-.07.02-.15.02-.22.25-3.73.57-7.47.92-10.98.3-2.96,4.74-2.62,4.57.34-.14,2.4-.39,4.88-.76,7.42,0,.05-.02.11-.03.16-1.48,6.4-.17,12.85,3.66,17.85,9.2,12.77,31.23,10.83,37.49-3.5.47-1.06,1.68-1.57,2.8-1.23,9.47,2.9,20.24,1.47,29.83-2.16.68-.26,1.45-.21,2.06.19,4.83,3.2,11.43,4.45,17.24,3.07.93-.22,1.89.17,2.42.96,8.5,12.63,31.5,10.83,37.33-3.53.45-1.1,1.7-1.66,2.81-1.27,7.63,2.7,16.91,1.08,22.38-4.94,8.48-9.59,7.09-20.38,8.2-30.6.26-2.42,3.62-2.79,4.44-.5,1.9,5.32,3.43,11.18,3.86,15.91.01.14.01.28,0,.43-.86,8.65,1.36,16.46,6.31,22.15,10.68,12,29.29,9.86,36.05-6.35.51-1.22,1.9-1.77,3.1-1.22,8.67,4.01,19.39,3.97,28.41.43,1.51-.59,3.14.53,3.12,2.16-.72,51.98,98.95,6.5,67.65-40.68-.71-1.07-.43-2.54.67-3.2,5.32-3.2,9.07-8.69,9.93-15.31Z"/><path class="e" d="M295.54,165.68c2.51-3.77.85-9.1-3.37-10.77-3.74-1.52-8,.28-9.52,4.02-3.02,7.45-8.15,14.04-14.73,18.71-6.57,4.7-14.53,7.42-22.6,7.84-16.44.99-32.43-7.67-42.2-20.71-2.92-3.92-8.91-4.21-12.18-.56-2.96,3.24-2.74,8.26.49,11.22,32.05,30.67,79.8,29.5,104.11-9.76Z"/><path class="e" d="M254.59,92.2c2.99,2.03,7.06,1.24,9.08-1.74,1.46-2.16,3.59-3.86,6.17-4.88,8.54-3.35,18.75.37,25.26,6.48,2.88,2.72,7.67,2.17,9.86-1.15,2.01-2.99,1.21-7.04-1.79-9.05-14.49-10.14-35.79-13.7-49.35.11-3.07,2.8-2.72,7.94.77,10.23Z"/><path class="e" d="M218.07,80.66c-16.72-13.83-41.55-13.32-59.19-1.39-7.55,5.39.52,16.13,7.79,10.41,2.94-2.55,6.38-4.57,10.1-5.88,11.13-4.09,24.9-1.84,33.08,6.96,6.88,5.22,14.72-4.43,8.23-10.1Z"/><path class="e" d="M238.78,13.48c-55.03-12.37-114.15,1.35-158.07,36.77-9.38,7.53-18.04,15.99-25.9,25.12-5.17-5.61-10.64-10.96-16.68-15.81-6.68-5.43-18.22-11.49-24.36-1.58-7.01,12,8.56,43.82,15.26,57.81-4.6,9.9-8.38,20.18-11.19,30.74-9.16,34.39-8.3,71.36,2.57,105.29,49.68,152.08,253.69,176.54,337.52,40.13,65.88-108.76,4.86-250.92-119.15-278.47ZM25.45,67.31c5.31,3.08,10.04,7.73,14.58,12.23,2.9,2.95,5.73,6.02,8.5,9.16.58,1.35,1.6,2.49,2.84,3.27,2.58,3,5.11,6.06,7.61,9.14,23.17,28.99,43.95,60.27,62.38,92.55-8.63,3.1-16.18,7.99-22.57,14.6-10.26-14.71-19.86-29.92-29.2-45.11-9.26-15.55-18.16-31.31-26.11-47.46-.15-1.72-.92-3.35-2.21-4.55-5.91-12.54-11.8-25.33-15.01-38.63-.37-1.76-.72-3.53-.82-5.19ZM169.84,282.95c.22,2.2.66,4.42,1.26,6.62-9.76,2.34-21.29-1.53-27.78-9.06-4.44-4.82-6.82-12.96-2.95-18.92,3.62-5.91,11.31-8.95,17.95-7.06,4.81,1.25,8.86,4.77,10.54,9.37,1.73,5.92.05,12.57.98,19.05ZM133.92,252.47c-9.78-10.56-18.84-21.78-27.4-33.42,5.85-6.67,12.87-11.24,21.29-13.85,6.85,12.58,13.35,25.49,18.58,38.73-4.84,1.66-9.22,4.58-12.48,8.54ZM40.03,263.27c7.31-8.31,6.43-26.65,5.5-45.85-.64-13.18-1.3-26.82.95-34.5,2.13-7.25,5.82-12.04,10.96-16.32,16.2,26.21,34.23,51.29,54.1,74.85,5.64,6.58,11.48,12.95,17.79,18.92-3.77,9.32-3.37,20.53,2.63,28.85,8.97,12.61,24.69,19.49,40.1,17.98,5.25-.56,10.63-2.12,15.51-5.11,0,0,4.65-2.66,8.86-7.12-3.51-1.98-6.08-5.43-6.08-5.43-2.26-2.8-3.83-5.71-4.72-9.2-1.4-5.45-1-11.64-2.66-17.44-2.7-10.18-11.92-18.16-22.12-20.01-1.2-.24-2.41-.37-3.62-.44-2.76-8.14-6.05-16.03-9.62-23.82-13.76-29.43-29.9-57.69-48-84.65,15.89-20.44,14.88-47.29-2.97-79.96,49.19-36.6,115.02-44.01,171.35-19.73,67.05,29.22,103.02,92.08,104.32,156.09-21.64-2.81-45.4-4.68-64.38,7.65-10.61,6.89-18.16,17.33-24.02,28.26-3.54,6.24-5.88,13.38-6.26,20.51-.72,11.09,2.07,21.66,4.43,32.08,3.51,14.7,5.55,28.76,1.39,43.03-3.7,12.61-11.19,23.47-20.12,33.2-86.36,34.85-186.73-6.79-223.31-91.81Z"/><path class="e" d="M390.8,67.44c3.06,15.03,5.33,30.11,8.8,45.05-3.44,4.05-2.41,10.86,2.23,13.51.96,8.51,2.16,16.95,3.05,25.44,1.17,7.75,12.31,10.06,16.44,3.37,4.26-6.41-1.7-13.58-2.83-20.11-1.02-3.59-1.85-7.7-2.39-11.44,13.83-8.78,29.49-18.75,34.94-35.04,9.17-32.73-19.59-41-46.15-38.53-2.05-8.89-15.78-9.05-17.62.07-15.5.21-11.58,21.91,3.53,17.7ZM437.73,74.18c3.17,15.76-12.39,26.07-24.74,31.65-3.13-13.5-5.82-27.01-6.88-40.86,10-.93,28.39-4.05,31.62,9.2ZM480.65,83.3c-.69-11.79-19.18-10.27-18.11,1.42,3.94,12.66,4.54,25.96,5.26,39.19.75,6.03-3.31,13.27,2.37,17.79,3.67,3.26,9.56,2.83,12.74-1,4.27-4.42,1.22-10.1-.03-15.06-2.15-10.13-2.26-20.55-3.03-30.86-.38-3.93.67-7.63.8-11.48ZM473.76,68.49c14.73-6.53,7.63-23.77-9.71-16.94-11.83,4.66,1.28,20.68,9.71,16.94ZM496.61,123.2c-.1,4.31-1.69,8.42-1.94,12.66-.23,11.81,18.32,11.73,18.17,0-1.53-10.92-7.06-47.11,8.6-48.69,16.07,5.21,20.71,29.36,21.44,44.33-.86,12.44,18.17,13.11,18.17.73-5.28-22.26-19.95-74.48-51.59-54.98,4.89-13.7-16.79-18.37-17.56-3.88,2.24,16.52,6.13,33.01,4.72,49.84ZM565.99,86.85l2.06-.36c.21-.09,1.57,1.18,1.33,1.45-.89,7.73-2.37,15.34-2.3,23.13-.11,10.87,3.93,21.81,14.41,26.04,6.59,2.61,19.06,4.26,22.83-4.12,3.09-5.27-.96-15.19-8.05-13.08-3.01,1.11-4.67,4.07-8.12,4-12.87-3.25-3.94-28.52-3.99-38.15,0,0,13.08.12,13.08.12,1.66.3,3.38.4,4.84-.54,7.81-4.39,4.48-17.34-4.6-17.02-4.22.3-6.27,2.2-11.02,1.7,3.29-7.84,4.88-17.57-6.42-18.65-8.42.07-9.51,7.81-8.84,14.41-1.21,5.1-9.73,1.37-12.17,5.93-4.71,5.91-.9,15.79,6.96,15.14ZM653.55,131.9c-.85,8.1,9.76,13.42,15.44,7.21,5.94-6.84.02-15.42,1.21-23.92-.48-12.33.06-26.44-6.3-37.24-7.63-12.68-29.39-13.81-40.87-4.9-5.36,4.99-.7,15.39,6.66,15.02,4.22-.03,6.72-3.9,10.29-5.63,5.61-2.46,13.42-.85,13.44,6.6-15.99,3.81-39.61,11.23-40.57,30.88,1.3,19.59,27.46,18.48,40.69,11.99ZM633.57,112.16c6.55-3.14,15.32-4.97,22.28-5.93,2.08,11.07-12.64,15.31-21.07,15.62-9.45.4-9.36-6.34-1.21-9.69ZM682.17,129.52c-.25,4-1.87,7.76-2.25,11.69-.55,7.24,8.91,11.7,14.12,6.51,5.5-4.91.73-12.34,1.56-18.59,1.08-9.62-2.27-30.48,10.93-32.2,14.93,5.73,18.09,27.72,18.34,41.94-1.24,11.52,16.42,12.82,16.85,1.32-4.11-20.87-15.88-69.91-45.97-52.92,3.83-8.21-6.83-16.58-13.47-10.04-4.75,4.34-2,10.94-1.42,16.34,1.46,11.93,2.62,23.95,1.33,35.94ZM794.8,121.13c1.6,6.69,2.91,13.16,3.74,20.02.59,5.96-.35,14.19,7.11,15.98,8.59,2.35,13.95-7.59,9.6-14.55-2.57-8.1-4.83-16.27-6.78-24.53-2.37-11.25-5.18-22.59-4.67-34.12-.37-10.71,5.94-24.84-1.82-33.69-8.4-6.18-16.49,3.55-14.41,12.16-.08,8.26-.94,16.39-1.66,24.6-5.88-2.89-12.45-4.48-19.01-3.65-26.48,3.1-26.33,37.29-14.97,55.19,14.59,21.91,40.71,4,42.88-17.39ZM783.64,104.63c-1.38,9.1-4.5,36.35-18.79,27.57-12.88-17.58-5.4-48.48,18.79-27.57ZM852.44,145.31c37.36-9.88,25.38-83.01-16.36-68.97-38.3,6.79-18.06,78.02,16.36,68.97ZM857.47,102.83c6.65,37.28-23.48,38.47-27.93,2.47-3-17.7,25.75-19.94,27.93-2.47ZM408.08,203.43c-9.26.51-11.41,14.24-2.66,17.44-.59,26.41,32.28,40.46,48.81,18.53,7.83-8.15-2.61-21.41-11.56-14.35-3.76,3.91-4.72,10.46-11.57,10.11-7.34.04-10.72-7.93-11.26-14.17,8.15-.57,16.85,1.37,24.71-1.15,13.05-2.86,20.94-17.98,15.08-30.22-13.41-23.06-45.72-7.56-51.53,13.81ZM446.23,201.86c-5.12,7.22-15.59,2.72-22.89,2.54,3.35-5.97,9.5-11.65,16.71-11.75,5.12-.44,8.92,4.62,6.18,9.21ZM470.57,168.55c3.19,29.39-7.22,59.86,4.36,88.19l-.12.11c1.29,17.48,28.43,9.58,16.35-4.32-13.48-19.84-5.81-57.35-2.79-80.61,4.22-12.66-17.27-16.32-17.8-3.38ZM657.9,198.9c0,6.45-.8,13.22-2.54,19.56-2.84,9.07-9.09,26.72-21.32,20.53-8.37-12.35,2.92-26.91,5.57-39.24.28-8.74-11.76-12.31-16.59-5.21-4.25,8.93-5.56,24.26-6.3,34.03-1.68,27.83,31.53,36.27,44.33,11.99,1.4,7.17,1.5,19.85,11.5,19.98,14.28-2.24,8.13-13.47,3.27-21.68-3.25-9.38-2.27-20.33-2-30.1.36-7.88,6.6-18.38-3.27-22.89-8.42-3.64-14.56,5.26-12.66,13.02ZM744.83,239.82c-2.76-20.19-11.26-67.74-40.99-53.18,4.13-7.63-5.6-16.24-12.32-10.36-4.79,3.88-2.53,10.35-2.27,15.55.73,11.49,1.17,23.05-.75,34.44-.46,3.81-2.22,7.32-2.81,11.05-.93,6.89,7.86,11.69,13.13,7.02,5.53-4.39,1.4-11.76,2.53-17.69,1.57-9.14-.46-29.27,12.26-30.18,13.96,6.32,15.74,27.53,15.18,41.14-1.83,10.95,14.98,13.19,16.04,2.21ZM797.7,233.26c.95,6.39,1.66,12.56,1.88,19.04.07,5.63-1.48,13.26,5.36,15.54,7.86,2.89,13.68-5.98,10.17-12.85-1.75-7.79-3.2-15.63-4.36-23.51-1.31-10.73-3.02-21.57-1.61-32.33.52-10.06,7.57-22.78,1.02-31.7-7.36-6.46-15.73,1.99-14.48,10.22-.74,7.72-2.2,15.27-3.55,22.9-5.27-3.18-11.3-5.2-17.5-4.95-25.04.75-27.68,32.78-18.49,50.46,11.89,21.7,37.8,7.05,41.56-12.81ZM768.75,241.2c-10.63-17.51-1.13-45.83,19.83-24.29-2.03,8.41-7.16,33.67-19.83,24.29ZM851.42,253.66c38.1.47,30.68-64.83-3.63-64.67-19.5-1-28.17,17.71-27.49,34.64-.94,18.06,13.47,30.88,31.12,30.04ZM861.83,227.86c1.69,13.41-16.58,13.47-23.19,7.99-2.71-2.26-4.06-6.34-4.06-12.23-1.42-30.2,28.75-19.99,27.25,4.24ZM433.22,308.32c-.03-9.2,3.19-18.82.91-27.79-7.12-10.79-17.59-3.17-18.95,7.21-4.32-.8-8.82-1.21-13.2-1.21-14.33-.2-26.11,10.04-30.76,23.07-8.11,18.26,3.78,44.68,25.98,32.34,9.25-5.74,15.77-16.59,21.25-25.49-.72,13.18.45,26.29,0,39.48.63,6.98-4.17,15.43,1.33,21.19,5.28,5.8,15.78,1.36,15.5-6.42-.9-7.26-2.28-14.53-2.3-21.86-.29-13.57-.51-26.97.24-40.51ZM395.43,302.87c4.29-.93,8.64-.18,12.84.97-26.64,54.23-34.81,9.59-12.84-.97ZM500.01,304.47c.7-7.86,7.38-18.08-2.29-23.01-8.26-4-14.77,4.64-13.2,12.47-.28,6.45-1.37,13.17-3.38,19.43-3.22,8.94-10.23,26.31-22.17,19.6-7.83-12.69,4.06-26.76,7.24-38.97.65-8.72-11.22-12.8-16.36-5.91-4.63,8.74-6.6,24-7.75,33.73-2.87,27.73,29.95,37.58,43.77,13.87,1.09,7.22.65,19.9,10.64,20.46,14.36-1.63,8.7-13.11,4.19-21.52-2.85-9.51-1.4-20.41-.71-30.15ZM563.51,291.15c-15.5-21.71-46.22-3.26-50.02,18.55-9.17,1.38-10.03,15.24-1.03,17.61,1.89,28.32,40.5,37.59,51.94,10.4,3.63-8.38-8.6-16.36-14.47-9.71-3.38,4.24-3.73,10.86-10.57,11.15-7.3.72-11.41-6.9-12.54-13.06,8.06-1.33,16.9-.21,24.49-3.45,12.72-4.07,19.17-19.85,12.19-31.49ZM528.78,309.24c2.78-6.26,8.37-12.48,15.54-13.26,5.05-.92,9.32,3.77,7.01,8.59-4.42,7.67-15.26,4.16-22.55,4.67ZM610.75,305.38c-11.07-7.11-15.11-24,1.82-24.71,9.14-.45,14.26,5.07,19.92,10.42,16.82,9.4,25.66-21.52-16.17-25.68-1.61-.11-3.19-.08-4.74.06-1.77.17-3.4-1.03-3.74-2.78-.54-2.81-.91-5.56-1.06-8.05-1.15-19.86-.31-49.69,0-69.27.01-6.84,1.09-13.62,1.87-20.38.49-7.65-9.87-13.21-15.47-7.92-12.28,19.54-19.72,42.48-36.09,59.55-12.55-18.25-18.73-39.51-25.26-60.32-3.92-9.31-18.6-5.95-18.43,3.96,2.14,9.99,6.41,18.05,6.38,28.12.37,24.41.73,49.77-2.51,74.12-.05,12.39,19.38,12.38,19.33,0-2.75-17.79-1.56-35.62-1.42-53.55,2.71,4.55,15.13,33.2,19.2,36.1,10.41,8.04,21.47-4.37,13.02-14.63,8.09-11.98,16.14-23.78,23.84-36.04.2,15.48,1,44.99-.13,60.26-.51,6.87-1.3,12.61-1.85,17.22-.58,4.84-1.52,9.62-2.49,14.39-1.04,5.05-.39,10.61,2.53,16.15,6.94,13.62,23.13,20.06,32.22,31.55,8.61,11.47-3.9,24.1-15.74,24.77-12.74.21-14.78,17.7-1.58,18.71,17.33-2.93,35.25-16.08,34.64-35.24.17-17.38-16.34-27.12-28.1-36.82ZM671.79,288.64c-38.8-3.38-37.56,70.79-2.06,70.85,38.64.13,46-73.61,2.06-70.85ZM685.6,319.77c-3.23,37.74-32.64,31.07-27.61-4.84,1.68-17.87,30.04-12.6,27.61,4.84ZM742.5,274.4c-7.32-2.02-14.38,5.34-11.67,12.13,2.04,4.56,11.8,2.55,9.38-3.08l-.12-.02c-.21-.77-.22-1.31.28-2.04,3.46.04,4.31,5.97,7.48,7.72,6.94,6.19,18.57-.78,15.17-9.58-3.04-5.13-11.8-1.64-9.21,4.41l.1.14-.02.12c-3.68-2.65-5.6-9.23-11.39-9.79ZM727.72,302.21c7.46-12.49-12.89-21.29-16.47-7.22-1.02,16.64-.41,33.58-5.06,49.8-.94,4.21-3.29,7.93-4.36,12.04-2.53,11.54,15.69,15.08,17.82,3.54.62-11.01,2.24-47.58,17.91-46.08,14.75,8.24,14.6,32.83,12.4,47.65-3.26,12.03,15.28,16.39,17.68,4.25-.85-22.87-5.08-76.94-39.91-63.97ZM817.43,298.43c-9.74-11.14-31.36-8.43-41.1,2.36-4.4,5.85,2.01,15.27,9.2,13.61,4.15-.77,5.92-5.02,9.14-7.35,5.09-3.41,13.06-3.2,14.4,4.13-15.07,6.56-37.02,18.02-34.51,37.54,4.73,19.06,30.28,13.36,42.17,4.65.59,8.13,11.97,11.49,16.47,4.38,4.64-7.78-2.7-15.18-3.01-23.76-2.64-12.06-4.59-26.03-12.75-35.55ZM796.48,346.78c-9.23,2.05-10.33-4.6-2.9-9.32,5.89-4.25,14.21-7.59,20.89-9.76,3.99,10.53-9.75,17.3-18,19.08ZM883.13,307.65c-8.03-5.95-19.2-4.55-26.77,1.57,6.6-20.86-14.4-25.56-16.96-9.93,1.87,14.43,5.3,28.67,4.97,43.36,1.15,9.51-8.33,26.89,6.9,28.22,11.75-.61,8.54-12.29,7.51-20.17.2-10.33-1.94-30.69,11.99-32.64,15.67,3.16,1.54,22.08,1.21,31.37-.47,7.31,9.42,11.82,14.66,7.33,6.93-8.02,3.08-21.55,6.36-31.67,12.28-44.11,32.05,5.86,33.13,25.31-2.55,18.43,15.86,23.52,18.65,7.75-3.14-16.24-8.76-32.8-16.11-47.84-10.22-20.92-33.31-22.92-45.54-2.67ZM964.86,285.25c-38.55,5.54-20.45,77.48,14.12,69.46,37.66-8.67,28.04-82.15-14.12-69.46ZM957.39,313.98c-2.43-17.78,26.38-19.1,27.99-1.57,5.45,37.48-24.7,37.69-27.99,1.57ZM1026.42,303.95c6.86-3.78,11.47,3.84,15.91,7.82,14.61,8.4,25.5-15.81-6.72-23.96-16.05-2.93-31.3,13-24.57,28.57,4.59,10.88,17.38,15.38,24.16,24.2,8.26,16.33-15.66,19.17-26.42,20.72-8.63,2.79-6.23,16.83,2.76,17.25,16.54-2.21,37.91-10.86,39.68-29.95,5.06-23.44-37.52-33.13-24.78-44.65Z"/></g></svg>