<?xml version="1.0" encoding="UTF-8"?><svg id="b" xmlns="http://www.w3.org/2000/svg" width="163.1" height="60" viewBox="0 0 163.1 60"><defs><style>.e{fill:#fff;}</style></defs><g id="c"><g id="d"><path class="e" d="M69,46.93c-1.03,0-1.89-.43-2.57-1.29-.28-.35-.53-.7-.73-1.05-.53-.87-1.01-1.41-1.45-1.64-.44-.23-.97-.34-1.57-.34,0,.15.01.46.04.95.04.76.22,2.82.24,3.3.01.22-.07.34-.45.34-.21,0-.64-.02-.76-.03-.12-.01-.21-.11-.21-.23-.02-.87-.09-2.4-.14-3.29-.22-3.61-.34-5.92-.34-6.91,0-.42.09-.68.26-.79.18-.11.83-.16,1.97-.16,2.04,0,3.41.46,4.12,1.39.41.55.61,1.12.61,1.72,0,1.52-.95,2.57-2.86,3.14.45.35.83.78,1.15,1.3.65.98,1.21,1.65,1.68,2,.32.24.7.37,1.12.37.35,0,.66-.09.93-.28.27-.18.51-.38.72-.59.2-.21.35-.31.42-.31.04,0,.11.05.21.15.1.1.19.25.28.44.08.19.12.34.12.45,0,.08-.14.23-.42.45-.28.22-.64.43-1.07.62-.43.19-.87.28-1.33.28ZM62.55,41.39c1.74-.19,2.89-.51,3.43-.93.55-.43.82-.99.82-1.68,0-.41-.16-.75-.48-1.04-.54-.46-1.34-.7-2.41-.73-.53,0-1.05.03-1.58.1,0,.57.03,1.42.09,2.53.07,1.17.11,1.75.13,1.75ZM69.86,43.54c-.12,0-.22,0-.29,0-.08,0-.14,0-.2,0s-.09,0-.1-.02c-.01-.01-.04-.52-.08-1.53-.08-2.29-.13-3.29-.13-4.15,0-.33.01-.53.04-.6,1.84-.05,2.91-.08,3.24-.08.1,0,.15,0,.16.02,0,.01.01.03.03.06.09.13.14.34.14.65,0,.12,0,.18-.01.18s-.02,0-.04.01c-.91.04-1.44.07-1.59.09-.16.02-.29.03-.39.04-.32.03-.48.06-.48.11l-.04.54c.02.23.03,1.29.09,1.29.7-.05,1.23-.08,1.57-.08.14,0,.22.03.22.08,0,.26,0,.43.01.51,0,.25-.02.37-.06.37-.36.02-.92.05-1.7.1,0,.25-.01.51-.01.8,0,.41.03.61.09.61,1.19-.08,1.91-.13,2.16-.13.15,0,.23,0,.24.03.07.14.1.38.1.74,0,.13-.02.19-.05.19-1.26.13-2.23.19-2.91.19Z"/><path class="e" d="M74.51,46.03c-.19,0-.33-.01-.39-.04-.03,0-.08-.9-.15-2.68-.14-3.25-.22-5.2-.22-5.86,0-.09.02-.14.06-.15l.33-.13c.17-.05.46-.08.88-.08,1.36,0,2.47.29,3.34.88,1.11.75,1.66,1.9,1.66,3.45,0,1.04-.16,1.82-.48,2.34-.32.52-.72.93-1.21,1.23-.48.3-.98.53-1.5.68s-.99.25-1.42.29c-.43.04-.73.06-.89.06ZM75.25,44.97c.3,0,.74-.09,1.34-.26.6-.17,1.15-.54,1.67-1.1.52-.56.77-1.25.77-2.08,0-1.27-.41-2.19-1.24-2.77-.64-.44-1.28-.66-1.9-.66-.09,0-.22,0-.39.01-.16,0-.31.02-.44.04-.13.02-.19.05-.19.1.03.28.04,1.18.04,2.69,0,2.01.02,3.18.07,3.52.05.34.14.51.27.51Z"/><path class="e" d="M84.14,38.35c-.58-.02-1.02.02-1.31.12-.03,0-.05.03-.05.09-.01.49,0,1.92.05,4.28.02,1.3.05,1.96.09,1.97.04.01.13.02.28.02.14,0,.49,0,1.06-.02.57-.02,1.13-.12,1.68-.32.55-.19,1.03-.54,1.45-1.02.41-.49.63-1.11.65-1.86.06-2.11-1.24-3.2-3.9-3.27ZM86.12,43.13c-.51.42-1.16.61-1.96.59-.13,0-.21-.14-.25-.41,0,0,0-.02,0-.03l-.02-.9c0,.16,0,.31,0,.44,0-.17,0-.37,0-.6v.16c0-.12,0-.24.01-.37,1.05,0,1.66-.04,1.82-.11.03-.02.05-.06.05-.14,0-.13.04-.39-.06-.74,0-.02-.23-.02-.52-.03h-1.27c0-.72,0-1.18-.02-1.39,0-.08.27-.11.8-.1s1.06.19,1.53.51c.48.33.71.81.69,1.45-.02.7-.28,1.26-.79,1.67Z"/><path class="e" d="M91.07,46.47c-.29,0-.46-.02-.49-.06-.03-.04-.05-1.17-.05-3.37,0-.74,0-2.1.01-2.83,0-.74.01-1.48.01-2.25,0-.54,0-.94-.01-1.2,0-.19.08-.34.24-.45.16-.11.53-.16,1.1-.16,1.62,0,2.72.15,3.3.46s.87.75.87,1.34-.29,1.04-.87,1.4c-.58.36-1.75.55-3.5.56l.03,4.16c.03,1.08.04,1.73.04,1.93,0,.22-.06.35-.17.39-.17.06-.34.1-.51.1ZM91.72,38.77c1.33,0,2.19-.08,2.59-.22.39-.14.59-.34.59-.62,0-.29-.15-.49-.46-.59-.31-.1-.99-.15-2.05-.15-.39,0-.62.03-.69.1,0,.42,0,.92.03,1.49ZM93.69,46.03c-.11,0-.2,0-.27,0-.07,0-.13,0-.18,0s-.08,0-.1-.02c-.01-.01-.04-.49-.08-1.43-.08-1.3-.11-2.3-.11-2.99,0-.31.01-.5.04-.56,1.98-.16,3.12-.24,3.43-.24.09,0,.14,0,.15.02,0,.01.01.03.03.06.08.11.13.31.13.6,0,.11,0,.17-.01.17s-.28.02-.82.05c-1.27.07-1.9.13-1.9.19v.34c-.01.18,0,.27.04.27.42-.05,1.01-.08,1.75-.08.14,0,.2.03.2.08,0,.25,0,.4.01.47,0,.24-.02.36-.06.36-.33,0-.95.04-1.87.09v.98c0,.48.03.72.08.72,1.29-.08,2.06-.11,2.3-.11.14,0,.22,0,.23.03.06.13.09.36.09.69,0,.12-.02.18-.05.18-1.37.12-2.37.18-2.99.18Z"/><path class="e" d="M104.32,46.93c-.9,0-1.64-.37-2.23-1.12-.25-.3-.46-.61-.63-.91-.46-.75-.88-1.23-1.26-1.43-.39-.2-.84-.3-1.36-.3,0,.13.01.4.04.82.03.66.05,1.18.05,1.56,0,.19-.16.29-.49.29-.32,0-.52-.03-.61-.06,0-.12-.03-.69-.09-1.7-.19-3.14-.29-5.14-.29-6,0-.36.08-.59.23-.69.15-.09.72-.14,1.71-.14,1.77,0,2.96.4,3.58,1.21.36.47.53.97.53,1.5,0,1.32-.83,2.23-2.49,2.73.39.3.72.68,1,1.13.57.85,1.05,1.43,1.46,1.74.28.21.6.32.98.32.3,0,.58-.08.81-.24.24-.16.44-.33.62-.51.18-.18.3-.27.37-.27.03,0,.1.04.18.13.09.09.17.22.24.38.07.17.11.29.11.39,0,.07-.12.2-.37.39-.25.19-.55.37-.93.54-.37.17-.76.25-1.15.25ZM98.71,42.12c1.51-.17,2.51-.44,2.98-.81.47-.37.71-.86.71-1.46,0-.36-.14-.66-.42-.9-.47-.4-1.16-.61-2.09-.63-.46,0-.91.03-1.37.09,0,.5.03,1.23.08,2.2.06,1.02.1,1.52.11,1.52ZM104.84,44.45c-.05,0-.14,0-.28-.03-.18-.03-.27-.06-.27-.11,0-.07.11-1.25.32-3.55.22-2.35.38-3.53.47-3.53.2,0,.99.8,2.36,2.41,1.51-1.56,2.34-2.34,2.47-2.34.14,0,.27.57.39,1.72.12,1.15.4,3.73.45,4.77.06,1.04.1,1.7.11,2-.25.03-.47.06-.63.1-.14.03-.23.04-.28.04s-.08-.02-.08-.05c-.19-3.1-.51-6.32-.58-6.67-1.24,1.21-1.89,1.81-1.95,1.81-1.07-1.13-1.62-1.7-1.64-1.7-.23,3.16-.41,4.85-.53,5.06-.04.04-.16.06-.34.06Z"/><path class="e" d="M116.57,46.03c-.08,0-.14-.02-.16-.05-.02-.03-.2-.58-.53-1.65-.28-.82-.44-1.23-.47-1.23-.11,0-.42.03-.93.09-.79.05-1.18.09-1.18.11s-.12.47-.37,1.35c-.25.87-.39,1.31-.44,1.31l-.27-.05c-.49-.05-.74-.1-.74-.15,1.85-5.91,2.83-8.86,2.92-8.86.08,0,1.11,3.01,3.07,9.04,0,.03-.01.04-.04.04-.14,0-.3.01-.48.03-.18.02-.31.03-.39.03ZM113.62,42.32c.76,0,1.26-.05,1.51-.13,0-.18-.09-.56-.27-1.16-.18-.6-.34-1.08-.48-1.47-.05.13-.19.57-.42,1.34-.23.77-.34,1.24-.34,1.42Z"/><path class="e" d="M121.58,45.97c-1.28,0-2.27-.37-2.97-1.1-.7-.74-1.05-1.87-1.05-3.41,0-1.18.32-2.21.96-3.11.64-.9,1.66-1.35,3.06-1.35.54,0,1,.08,1.37.23.69.28,1.14.57,1.37.86.23.3.34.5.34.62,0,.03-.11.11-.32.27-.22.15-.35.23-.41.23,0,0-.04-.03-.09-.1-.07-.1-.19-.23-.37-.4-.18-.17-.41-.32-.7-.46-.28-.14-.62-.22-1.01-.22-1.05,0-1.84.33-2.38.99-.54.66-.81,1.5-.81,2.53,0,1.19.27,2.08.82,2.65.55.58,1.26.86,2.12.86.39,0,.75-.07,1.09-.22.34-.15.63-.36.88-.63.25-.27.43-.48.55-.63.08-.08.12-.13.14-.13.45.37.67.58.67.62-.23.5-.62.94-1.18,1.33-.56.39-1.25.58-2.08.58Z"/><path class="e" d="M128.46,46.06c-.74,0-1.32-.22-1.72-.66-.4-.44-.68-1.12-.83-2.03-.15-.91-.23-2.08-.23-3.49l.06-2.75,1.09-.06c-.06.78-.1,1.8-.13,3.06,0,.72.04,1.46.11,2.23.07.77.23,1.41.49,1.94.25.52.64.79,1.15.79.77,0,1.29-.44,1.57-1.33.27-.88.41-2.08.41-3.59,0-.92-.01-1.89-.04-2.91.15-.04.3-.06.46-.06.13,0,.3.02.52.05.06,1.55.09,2.7.09,3.45,0,1.25-.12,2.28-.36,3.09-.24.81-.56,1.39-.98,1.74-.42.36-.98.53-1.67.53Z"/><path class="e" d="M132.99,45.99c-.26,0-.39-.02-.39-.03-.02-1.06-.04-3.23-.06-6.52v-2.32s.13-.05.38-.05c.39,0,.59.04.6.13.05,1.24.08,2.43.08,3.59,0,.36.03,1.75.09,4.18l2.06-.03c.56,0,.86.03.91.08.05.1.08.24.08.41,0,.31-.04.47-.13.47-.16,0-.49.01-.99.04-.93.04-1.8.06-2.61.06Z"/><path class="e" d="M137.82,46.05c-.03-1.86-.04-3.37-.04-4.52v-3.4s-.7-.01-.7-.01h-.76c-.29.01-.45-.04-.49-.15-.04-.11-.06-.31-.06-.6,0-.13.1-.19.3-.2,1.24-.09,2.44-.14,3.59-.14.62,0,.96.03,1.02.09.06.06.1.2.1.43,0,.26-.03.39-.09.39-.14,0-.46.02-.95.05-.49.03-.81.06-.97.06v3.87c0,.72.01,2.06.04,4.04-.39.06-.72.09-.99.09Z"/><path class="e" d="M144.3,46.06c-.74,0-1.32-.22-1.72-.66-.4-.44-.68-1.12-.83-2.03-.15-.91-.23-2.08-.23-3.49l.06-2.75,1.09-.06c-.06.78-.1,1.8-.13,3.06,0,.72.04,1.46.11,2.23.07.77.23,1.41.49,1.94.25.52.64.79,1.15.79.77,0,1.29-.44,1.57-1.33.27-.88.41-2.08.41-3.59,0-.92-.01-1.89-.04-2.91.15-.04.3-.06.46-.06.13,0,.3.02.52.05.06,1.55.09,2.7.09,3.45,0,1.25-.12,2.28-.36,3.09-.24.81-.56,1.39-.98,1.74-.42.36-.98.53-1.67.53Z"/><path class="e" d="M155.23,47.11c-.92,0-1.69-.38-2.3-1.15-.25-.31-.47-.63-.65-.94-.47-.78-.91-1.27-1.3-1.47-.4-.2-.87-.31-1.41-.31,0,.13.01.41.04.85.03.68.05,1.22.05,1.61,0,.2-.17.3-.51.3-.33,0-.54-.03-.63-.07,0-.12-.03-.71-.09-1.75-.2-3.24-.3-5.3-.3-6.19,0-.37.08-.61.24-.71.16-.1.75-.14,1.77-.14,1.82,0,3.05.41,3.69,1.24.37.49.55,1,.55,1.54,0,1.36-.85,2.3-2.56,2.81.4.31.75.7,1.03,1.16.58.88,1.09,1.48,1.5,1.79.29.22.62.33,1.01.33.31,0,.59-.08.84-.25.24-.17.46-.34.64-.53.18-.19.43-.36.48-.32.1.09.27.4.34.57.07.17.11.3.11.4,0,.07-.13.21-.38.41-.25.2-.57.39-.96.56-.38.17-.78.26-1.19.26ZM149.45,42.15c1.56-.17,2.59-.45,3.08-.84.49-.38.73-.89.73-1.5,0-.37-.14-.68-.43-.93-.48-.41-1.2-.63-2.16-.65-.47,0-.94.03-1.41.09,0,.51.03,1.27.08,2.26.06,1.05.1,1.57.12,1.57ZM154.31,44.29c-.16,0-.24-.02-.24-.06,0-.14.38-1.32,1.26-3.73.74-2.12,1.16-3.19,1.27-3.19.03,0,.47,1.02,1.31,3.05,1.02,2.61,1.73,4.37,1.75,4.51,0,.08-.28.36-.78.5-.1.03-.17-.05-.21-.16-.04-.11-.49-1.21-.82-1.99-1.61.13-2.43.22-2.46.28-.2.58-.27.76-.33.76l-.74.03ZM155.71,42.48c1.18-.08,1.78-.16,1.78-.24,0-.09-.3-.9-.89-2.41-.59,1.68-.89,2.56-.89,2.65Z"/><path class="e" d="M65.64,52.15c-.78-1.96-.87-1.96-.92-1.96-.1,0-.31.21-1.07,1.88-.36.81-.78,1.81-.78,1.97,0,.09.05.2.31.2h.39c.11-.01.16-.09.32-.55.1.02.42.03,1.4.03.15.45.42,1.27.42,1.27.03.1.12.16.26.16.15,0,.3-.03.42-.08.13-.06.2-.13.2-.21,0-.15-.67-1.94-.96-2.7ZM64.27,52.82c.18-.44.3-.73.37-.88l.32.86-.69.02Z"/><path class="e" d="M64.22,54.53h-1.8c-.03-1.32-.04-2.62-.05-4.08-.02-.15-.19-.22-.52-.22-.25,0-.38.07-.38.2v1.75c0,1.81.02,2.42.04,3.07,0,.17.28.18.37.18h0c.44,0,1.2-.01,2.28-.04.26-.01.43-.02.52-.02.16,0,.23-.14.23-.42,0-.17-.03-.28-.09-.34-.04-.04-.14-.09-.61-.09Z"/><path class="e" d="M69.79,56.08c-.96,0-1.44-.04-1.44-.11v-.1c-.04-.17-.06-.7-.06-1.6,0-1.27,0-2.07,0-2.39,0-.32,0-.6,0-.85,0-1.23.04-1.84.13-1.84.72-.1,1.47-.14,2.26-.14.73,0,1.31.18,1.74.54.43.36.64.77.64,1.21,0,.31-.06.57-.19.77-.13.2-.27.37-.42.49-.16.12-.29.21-.39.27-.11.06-.16.1-.16.12s.06.06.18.1c.88.29,1.33.85,1.33,1.67,0,.65-.31,1.12-.92,1.41-.61.29-1.51.44-2.7.44ZM69.25,55.25c1.03,0,1.82-.07,2.38-.22.56-.15.84-.42.84-.81,0-.34-.11-.59-.32-.75s-.46-.25-.72-.29c-.27-.04-.48-.06-.64-.06-.39,0-.74.02-1.06.06-.32.04-.5.09-.54.14-.02.32-.02.58-.02.79,0,.76.03,1.13.08,1.13ZM69.25,52.31c.44,0,.88-.05,1.33-.16.45-.1.82-.26,1.12-.48.3-.22.45-.5.45-.84,0-.57-.59-.85-1.77-.85-.68,0-1.07.06-1.17.17,0,.06-.01.33-.01.84,0,.88.02,1.33.06,1.33Z"/><path class="e" d="M74.57,55.89c-.23,0-.36-.05-.41-.16-.02-.16-.03-.27-.03-.33,0-.18.07-.29.21-.34l.21-.02c.03-1.51.05-2.37.05-2.59v-1.32c-.27,0-.4-.07-.4-.22,0-.13,0-.26-.02-.4,0-.13.06-.21.18-.23.34-.07.83-.1,1.47-.1.03.13.05.24.05.33,0,.19-.01.33-.04.41-.02.08-.13.13-.33.15v.63c0,.37,0,.82,0,1.35.02.78.03,1.36.03,1.73v.2c.11,0,.24.03.37.06-.01.2-.02.37-.02.51s-.06.23-.17.3c-.49.03-.88.05-1.16.05Z"/><path class="e" d="M78.97,55.95c-.59,0-1.1-.16-1.51-.47-.41-.31-.69-.64-.83-.98-.14-.34-.21-.75-.21-1.25,0-.36.08-.77.25-1.25.16-.48.45-.9.86-1.27.41-.37.97-.55,1.67-.55.8.02,1.44.28,1.95.79.5.51.76,1.16.78,1.94,0,1.16-.42,2.02-1.25,2.59-.44.3-1,.45-1.7.45ZM79.01,55.02c.71,0,1.23-.27,1.56-.81.25-.4.37-.82.37-1.25s-.07-.77-.21-1.03-.36-.47-.66-.64c-.3-.16-.63-.25-.98-.25-.36,0-.66.13-.92.37-.26.24-.45.53-.59.88-.14.35-.2.67-.2.97,0,.5.15.92.44,1.25.29.33.69.5,1.18.5Z"/><path class="e" d="M86.72,56.46c-.59,0-1.08-.24-1.46-.73-.15-.19-.29-.38-.4-.57-.26-.43-.49-.7-.7-.8-.21-.11-.4-.16-.58-.16.03.62.05,1.02.05,1.2,0,.24-.04.37-.11.39s-.19.02-.35.02c-.24,0-.41-.03-.52-.09,0-.14-.02-.51-.06-1.12-.12-1.89-.18-3.1-.18-3.62,0-.32.04-.51.12-.57s.48-.08,1.21-.08c1.11,0,1.87.26,2.28.79.24.31.36.64.36.99,0,.88-.44,1.44-1.32,1.7.09.07.22.25.4.53.33.5.62.83.84,1,.14.11.3.16.49.16.15,0,.29-.04.41-.12.12-.08.25-.18.37-.31.12-.12.22-.18.31-.18.06,0,.13.04.21.11.08.07.14.17.19.29.05.12.08.22.08.3,0,.09-.09.2-.26.34-.17.14-.38.26-.62.37-.24.11-.49.16-.75.16ZM83.49,53.21c.77-.07,1.29-.21,1.54-.41.25-.2.38-.46.38-.77,0-.16-.07-.3-.2-.42-.27-.23-.68-.34-1.22-.34-.15,0-.35.02-.6.05,0,.6.03,1.24.1,1.89ZM87.48,54.45c-.07,0-.14,0-.18,0s-.1,0-.15,0-.1-.02-.14-.06c-.04-.04-.07-.38-.1-1.03-.05-1.28-.07-2.18-.07-2.7,0-.22.02-.39.07-.52,1.18-.03,1.87-.05,2.06-.05.14,0,.23.02.28.05.05.03.08.22.08.55,0,.18-.05.27-.15.27-.62.03-1.08.07-1.37.1l-.02.99c.36-.01.64-.02.84-.02.2,0,.3.17.3.5,0,.26-.07.39-.2.39-.21,0-.5.02-.87.05v.53c.64-.04,1.04-.06,1.19-.06.16,0,.25.03.29.1.05.11.08.28.08.53,0,.16-.06.25-.18.27-.76.07-1.35.11-1.76.11Z"/><path class="e" d="M92.53,55.85c-.76,0-1.36-.23-1.79-.68-.43-.45-.64-1.04-.64-1.77,0-.53.09-1.02.27-1.49.18-.47.48-.86.91-1.17.42-.31.92-.47,1.5-.47.48,0,.87.08,1.16.24.29.16.6.43.94.8-.37.4-.59.6-.67.6-.06,0-.15-.07-.26-.21-.12-.14-.27-.27-.45-.37-.18-.1-.43-.16-.74-.16s-.61.09-.87.26-.46.42-.6.74c-.15.32-.22.69-.22,1.11s.07.77.21,1.01c.14.25.32.42.55.51.22.09.51.14.85.14.4,0,.75-.16,1.07-.48s.47-.6.47-.84l-1.09.04c-.69,0-1.07-.04-1.15-.11-.07-.26-.1-.42-.1-.49,0-.15.08-.23.25-.25.12-.02.51-.04,1.18-.05,1.04,0,1.61.02,1.72.05.11.03.16.19.16.47,0,.72-.25,1.33-.74,1.82-.5.49-1.13.74-1.91.74Z"/><path class="e" d="M96.09,55.89c-.23,0-.36-.05-.41-.16-.02-.16-.03-.27-.03-.33,0-.18.07-.29.21-.34l.21-.02c.03-1.51.05-2.37.05-2.59v-1.32c-.27,0-.4-.07-.4-.22,0-.13,0-.26-.02-.4,0-.13.06-.21.18-.23.34-.07.83-.1,1.47-.1.03.13.05.24.05.33,0,.19-.01.33-.04.41-.02.08-.13.13-.33.15v.63c0,.37,0,.82,0,1.35.02.78.03,1.36.03,1.73v.2c.11,0,.24.03.37.06-.01.2-.02.37-.02.51s-.06.23-.17.3c-.49.03-.88.05-1.16.05Z"/><path class="e" d="M100.49,55.95c-.59,0-1.1-.16-1.51-.47-.41-.31-.69-.64-.83-.98-.14-.34-.21-.75-.21-1.25,0-.36.08-.77.25-1.25.16-.48.45-.9.86-1.27.41-.37.97-.55,1.67-.55.8.02,1.44.28,1.95.79.5.51.76,1.16.78,1.94,0,1.16-.42,2.02-1.25,2.59-.44.3-1,.45-1.7.45ZM100.53,55.02c.71,0,1.23-.27,1.56-.81.25-.4.37-.82.37-1.25s-.07-.77-.21-1.03-.36-.47-.66-.64c-.3-.16-.63-.25-.98-.25-.36,0-.66.13-.92.37-.26.24-.45.53-.59.88-.14.35-.2.67-.2.97,0,.5.15.92.44,1.25.29.33.69.5,1.18.5ZM100.56,50.36c-.08-.05-.15-.13-.21-.23-.05-.11-.08-.2-.08-.26,0-.1.24-.25.71-.47.47-.22.76-.33.86-.33.08,0,.16.08.23.23.07.16.11.27.11.35,0,.11-.25.25-.74.43-.5.18-.79.27-.88.27Z"/><path class="e" d="M107.45,55.9c-.1,0-.24-.12-.42-.37-.19-.24-.48-.67-.89-1.28-.41-.61-.78-1.2-1.13-1.76v.41c0,.55,0,1.01,0,1.4,0,.39,0,.92-.02,1.61l-.46-.02c-.22,0-.36-.06-.44-.17v-.07c-.02-.15-.03-.5-.04-1.05,0-.49,0-1.07.03-1.74.02-.67.04-1.26.06-1.77s.08-.81.18-.89c.16,0,.41.23.73.7.32.47.64.94.94,1.42.3.48.57.92.81,1.34,0-.06,0-.21,0-.45,0-.23-.01-.61-.04-1.12-.02-.51-.03-.93-.03-1.25,0-.24.03-.41.1-.51.07-.09.2-.14.38-.14.32,0,.48.03.48.1s0,.1.01.12c0,.02.01.22.02.61,0,1.28,0,2.19,0,2.75-.01,1.36-.1,2.08-.27,2.14Z"/><path class="e" d="M110.28,54.28c-.1,0-.18-.01-.24-.03-.07-.02-.12-.46-.15-1.31-.06-1.38-.09-2.22-.09-2.5,0-.15.05-.23.16-.25.16-.06.39-.1.7-.1,1.46,0,2.19.68,2.19,2.04,0,.49-.11.89-.33,1.21-.22.32-.48.55-.79.69-.3.13-.6.21-.9.23-.3.02-.48.02-.55.02ZM111.63,53.06c.24-.24.37-.58.36-1,0-.71-.45-1.11-1.33-1.11.03,1.41.07,2.26.1,2.48.34,0,.63-.12.87-.37Z"/><path class="e" d="M116.92,54.11c-.32,0-.48-.08-.48-.21v-1.13c0-.67,0-1.44,0-2.43,0-.15.16-.23.47-.23.44,0,.44.06.47.31s.03,2.73.03,2.73l.66-.02c.29,0,.47.04.55.11.06.12.08.25.08.43,0,.35-.1.4-.29.4-.11,0-.34,0-.7.03-.23,0-.45,0-.8,0Z"/><path class="e" d="M113.74,54.19c-.21-.01-.31-.12-.31-.33l.02-1.34c0-.18-.02-.86-.06-2.14,0-.18.29-.27,1-.27.52,0,.73.02,1.25.05.1,0,.19.09.19.19l.05.48c0,.15-.13.23-.38.24-.77.03-.35.04-1.1.04-.01.09-.02.32-.02.69.25,0-.21-.02.98-.06.09,0,.17,0,.23.02.06.01.08.06.08.14-.02.51-.09.77-.22.77-1.43.02-1,.03-1.07.04v.54s.55-.03,1.02-.03c.24,0,.39.03.45.1.06.07.08.26.08.57,0,.12-.04.2-.13.24-.11.05-1.96.07-2.05.08Z"/><path class="e" d="M120.6,56.72c-.02-1.75-.04-3.17-.04-4.25v-3.2s-.66-.01-.66-.01h-.72c-.27.01-.43-.04-.47-.14-.04-.1-.06-.29-.06-.56,0-.12.1-.18.29-.19,1.17-.09,2.3-.13,3.38-.13.58,0,.9.03.96.08.06.06.09.19.09.41,0,.25-.03.37-.08.37-.14,0-.43.02-.89.05-.46.03-.76.05-.91.06v3.64c0,.68.01,1.94.04,3.8-.37.06-.68.08-.93.08Z"/><path class="e" d="M124.28,55.9c-.87,0-1.37-.03-1.5-.07-.06-.11-.1-.41-.14-.91-.06-1.23-.09-2.35-.09-3.38,0-.56.03-.91.08-1.07.06-.08.33-.14.79-.19.46-.05,1.01-.07,1.64-.07.56,0,.85.06.87.18.03.22.05.39.05.49,0,.19-.12.29-.35.29-1.12,0-1.82.01-2.09.04l.02.95c.47-.03.91-.05,1.33-.05.27,0,.41.06.43.16.06.23.1.4.1.49,0,.11-.04.19-.12.22-.12.06-.47.1-1.06.11l-.64.04c0,1.12.01,1.73.04,1.82l2.46-.05c.02.2.03.34.03.42,0,.13,0,.24-.02.33-.02.09-.08.15-.18.18-.14.03-.68.05-1.64.05Z"/><path class="e" d="M130.8,56.57c-.33,0-.62-.14-.86-.43-.1-.11-.16-.21-.2-.3-.13.03-.33.05-.61.06-.78,0-1.41-.25-1.9-.76-.49-.5-.74-1.15-.76-1.93,0-.5.1-.97.29-1.41.19-.44.5-.81.93-1.1s.98-.43,1.66-.43c.61,0,1.15.2,1.63.6.57.48.86,1.15.86,2.03,0,.39-.08.82-.24,1.29-.16.47-.44.87-.84,1.19-.1.08-.16.13-.19.14.06.11.21.16.46.16.18,0,.27.11.27.32,0,.1-.02.22-.05.36-.03.14-.19.21-.46.21ZM129.24,55.06h.24c-.09-.25-.28-.4-.56-.44-.12-.01-.19-.04-.21-.1-.02-.05-.03-.1-.03-.14,0-.14.04-.3.11-.46.07-.16.17-.24.29-.24.06,0,.18.03.33.1.46.24.74.53.84.88.04-.04.16-.22.37-.56.2-.33.3-.78.3-1.35,0-.27-.06-.52-.18-.78-.12-.25-.3-.46-.54-.62-.24-.16-.53-.24-.86-.24-.7,0-1.19.23-1.47.69-.28.46-.42.91-.42,1.34,0,.54.18.99.53,1.36.35.36.77.55,1.26.55Z"/><path class="e" d="M134.32,55.94c-.5,0-.88-.15-1.15-.44-.27-.29-.45-.73-.55-1.3s-.14-1.29-.14-2.15l.05-1.81.98-.06c-.04.58-.07,1.26-.09,2.01,0,.42.02.86.06,1.31.04.45.13.81.27,1.09.14.28.33.42.57.42.38,0,.65-.24.8-.73.15-.49.23-1.33.23-2.52,0-.25-.01-.72-.03-1.41.19-.05.33-.08.44-.08.08,0,.24.02.47.06.04,1.02.06,1.86.06,2.52,0,.14,0,.34-.02.59-.01.25-.05.51-.1.79-.06.28-.16.55-.29.8-.14.26-.33.47-.58.64-.25.17-.57.26-.97.26Z"/><path class="e" d="M138.78,55.9c-.87,0-1.37-.03-1.5-.07-.06-.11-.1-.41-.14-.91-.06-1.23-.09-2.35-.09-3.38,0-.56.03-.91.08-1.07.06-.08.33-.14.79-.19.46-.05,1.01-.07,1.64-.07.56,0,.85.06.87.18.03.22.05.39.05.49,0,.19-.12.29-.35.29-1.12,0-1.82.01-2.09.04l.02.95c.47-.03.91-.05,1.33-.05.27,0,.41.06.43.16.06.23.1.4.1.49,0,.11-.04.19-.12.22-.12.06-.47.1-1.06.11l-.64.04c0,1.12.01,1.73.04,1.82l2.46-.05c.02.2.03.34.03.42,0,.13,0,.24-.02.33-.02.09-.08.15-.18.18-.14.03-.68.05-1.64.05Z"/><path class="e" d="M144.64,55.9c-.1,0-.24-.12-.42-.37-.19-.24-.48-.67-.89-1.28-.41-.61-.78-1.2-1.13-1.76v.41c0,.55,0,1.01,0,1.4,0,.39,0,.92-.02,1.61l-.46-.02c-.22,0-.36-.06-.44-.17v-.07c-.02-.15-.03-.5-.04-1.05,0-.49,0-1.07.03-1.74.02-.67.04-1.26.06-1.77s.08-.81.18-.89c.16,0,.41.23.73.7.32.47.64.94.94,1.42.3.48.57.92.81,1.34,0-.06,0-.21,0-.45,0-.23-.01-.61-.04-1.12-.02-.51-.03-.93-.03-1.25,0-.24.03-.41.1-.51.07-.09.2-.14.38-.14.32,0,.48.03.48.1s0,.1.01.12c0,.02.01.22.02.61,0,1.28,0,2.19,0,2.75-.01,1.36-.1,2.08-.27,2.14Z"/><path class="e" d="M146.33,55.91c-.13,0-.23-.01-.29-.03-.08-.03-.14-.62-.19-1.76-.09-1.95-.13-3.13-.13-3.53,0-.14.05-.24.16-.29.13-.05.39-.08.76-.08.85,0,1.55.18,2.1.55.71.48,1.07,1.22,1.07,2.21,0,.66-.1,1.15-.31,1.49-.21.33-.46.6-.77.79-.31.19-.62.34-.95.43s-.62.15-.88.18c-.26.03-.45.04-.56.04ZM146.79,54.97c.15,0,.4-.06.74-.15.34-.1.65-.3.94-.61.29-.31.43-.7.43-1.16,0-.71-.23-1.22-.68-1.54-.36-.25-.71-.37-1.06-.37h-.44s0,1.56,0,1.56c0,1.2.02,1.96.06,2.27Z"/><path class="e" d="M153.24,55.91c-.11,0-.18-.03-.21-.08-.01-.02-.2-.58-.57-1.69-.06,0-.21.02-.47.06-.25.02-.41.04-.47.05-.07.01-.18.28-.33.82s-.3.8-.42.8l-.17-.03c-.39-.04-.58-.13-.58-.27,1.15-3.65,1.79-5.47,1.92-5.47s.8,1.86,2.01,5.57c0,.14-.06.21-.18.21-.08,0-.17,0-.28.02-.11.01-.19.02-.25.02ZM151.65,53.37c.32-.01.51-.03.57-.05,0-.01-.04-.16-.12-.43-.08-.28-.14-.47-.19-.58-.17.65-.26,1.01-.27,1.06Z"/><path class="e" d="M155.35,55.97c-.48,0-.75-.02-.79-.06-.05-.04-.08-.08-.1-.12-.02-.03-.03-.09-.03-.18.02-.66.08-1.76.21-3.28.15-1.46.3-2.2.45-2.2.11,0,.44.5.99,1.51l.5.97.66-1.39c.36-.73.58-1.09.66-1.09.2,0,.42.87.64,2.61.23,1.59.34,2.61.34,3.06-.29.1-.5.14-.65.14s-.23-.03-.25-.08c-.02-.05-.04-.09-.04-.13-.21-2.12-.32-3.24-.33-3.37-.57,1.09-.91,1.63-1.02,1.63-.15,0-.36-.24-.63-.72l-.44-.8c-.06.53-.13,1.68-.2,3.48Z"/><path class="e" d="M162.38,55.91c-.11,0-.18-.03-.21-.08-.01-.02-.2-.58-.57-1.69-.06,0-.21.02-.47.06-.25.02-.41.04-.47.05-.07.01-.18.28-.33.82s-.3.8-.42.8l-.17-.03c-.39-.04-.58-.13-.58-.27,1.15-3.65,1.79-5.47,1.92-5.47s.8,1.86,2.01,5.57c0,.14-.06.21-.18.21-.08,0-.17,0-.28.02-.11.01-.19.02-.25.02ZM160.79,53.37c.32-.01.51-.03.57-.05,0-.01-.04-.16-.12-.43-.08-.28-.14-.47-.19-.58-.17.65-.26,1.01-.27,1.06Z"/><path class="e" d="M56.91,54.36s-.07,0-.09,0c-.1,0-.16,0-.19-.02-.07-.02-.09-.03-.11-1.27-.02-1.44-.03-2.32-.02-2.62,0-.09.05-.13.1-.13.15-.05.37-.07.65-.07.05,0,.11,0,.17,0,.82.03,1.45.21,1.86.56.41.35.61.86.59,1.52-.02.48-.16.87-.42,1.18-.26.31-.57.52-.92.64-.34.12-.69.18-1.05.19-.26,0-.45,0-.56,0ZM57.32,52.79v.54s.01.01.01.01c.02.13.05.18.08.18.03,0,.05,0,.08,0,.43,0,.79-.11,1.07-.34.29-.24.44-.56.46-.96.01-.36-.12-.64-.39-.82-.28-.19-.58-.29-.89-.3-.05,0-.1,0-.15,0-.16,0-.23.01-.26.02,0,.13.01.37,0,.73h.7c.06.01.1.01.15.02h.02c.18,0,.23.01.23.08.05.19.04.34.04.43v.04c0,.08-.03.13-.08.15-.07.03-.26.07-1.07.07,0,.05,0,.1,0,.15Z"/><path class="e" d="M52.34,33.58c-.65-.53-1.21-1.16-1.65-1.87h0c-.72-1.15-1.13-2.51-1.13-3.97,0-1.46.41-2.81,1.13-3.97h0c.44-.71,1-1.35,1.65-1.87.32-.26.18-.77-.22-.84-.83-.13-1.63-.4-2.37-.8h0c-1.2-.64-2.23-1.61-2.96-2.87-.73-1.26-1.05-2.64-1-4h0c.03-.84.19-1.67.49-2.45.15-.38-.23-.76-.61-.61-.78.3-1.61.46-2.45.49h0c-1.35.04-2.74-.28-4-1.01-1.26-.73-2.23-1.77-2.87-2.96h0c-.4-.74-.66-1.54-.8-2.37-.07-.4-.58-.54-.84-.22-.53.65-1.16,1.21-1.87,1.65h0c-1.15.72-2.51,1.13-3.97,1.13s-2.81-.41-3.97-1.13h0c-.71-.44-1.35-1-1.87-1.65-.26-.32-.77-.18-.84.22-.13.82-.4,1.63-.8,2.36h0c-.64,1.2-1.61,2.23-2.87,2.96-1.26.73-2.64,1.05-4,1h0c-.84-.03-1.67-.19-2.45-.49-.38-.15-.76.23-.61.61.3.78.46,1.61.49,2.45h0c.04,1.36-.28,2.74-1,4-.73,1.26-1.77,2.23-2.96,2.87h0c-.74.4-1.54.67-2.36.8-.4.07-.54.58-.22.84.65.53,1.21,1.16,1.65,1.87h0c.72,1.15,1.13,2.51,1.13,3.97,0,1.46-.41,2.81-1.13,3.97h0c-.44.71-1,1.35-1.65,1.87-.32.26-.18.77.22.84.83.13,1.63.4,2.36.8h0c1.2.64,2.23,1.61,2.96,2.87.73,1.26,1.05,2.64,1,4h0c-.03.84-.19,1.67-.49,2.45-.15.38.23.76.61.61.78-.3,1.61-.46,2.45-.49h0c1.35-.04,2.74.28,4,1.01,1.26.73,2.23,1.77,2.87,2.96h0c.4.74.66,1.54.8,2.37.07.4.58.54.84.22.53-.65,1.16-1.21,1.87-1.65h0c1.15-.72,2.51-1.13,3.97-1.13,1.46,0,2.81.41,3.97,1.13h0c.71.44,1.35,1,1.87,1.65.26.32.77.18.84-.22.13-.83.4-1.63.8-2.36h0c.64-1.2,1.61-2.23,2.87-2.96,1.26-.73,2.64-1.05,4-1h0c.84.03,1.67.19,2.45.49.38.15.76-.23.61-.61-.3-.78-.47-1.61-.49-2.45h0c-.04-1.36.28-2.74,1-4,.73-1.26,1.77-2.23,2.96-2.87h0c.74-.4,1.54-.67,2.36-.8.4-.07.54-.58.22-.84ZM48.92,21.97c.23.17.32.48.2.74-.59,1.28-1.56,2.39-2.87,3.14-2.45,1.42-5.4,1.19-7.58-.33-.24-.17-.33-.49-.2-.75,1.12-2.41,3.56-4.08,6.4-4.08,1.51,0,2.91.48,4.06,1.29ZM39.19,13.64c1.31-.76,2.76-1.04,4.16-.92.29.03.52.25.54.54.13,1.4-.16,2.85-.92,4.16-1.42,2.45-4.08,3.73-6.73,3.5-.29-.03-.53-.26-.55-.55-.23-2.65,1.05-5.32,3.5-6.73ZM30.76,10.37c.76-1.31,1.87-2.28,3.14-2.87.26-.12.57-.04.74.2.81,1.15,1.29,2.55,1.29,4.06,0,2.83-1.67,5.28-4.08,6.4-.27.12-.59.04-.75-.2-1.53-2.18-1.75-5.13-.33-7.58ZM23.1,7.7c.17-.23.48-.32.74-.2,1.28.59,2.39,1.56,3.14,2.87,1.42,2.45,1.19,5.4-.33,7.58-.17.24-.49.33-.75.2-2.41-1.12-4.08-3.56-4.08-6.4,0-1.51.48-2.91,1.29-4.06ZM13.85,13.27c.03-.29.25-.52.54-.54,1.4-.13,2.85.16,4.16.92,2.45,1.42,3.73,4.08,3.5,6.73-.03.29-.26.53-.55.55-2.65.23-5.32-1.05-6.73-3.5-.76-1.31-1.04-2.76-.92-4.16ZM8.82,21.98c1.15-.81,2.55-1.29,4.06-1.29,2.83,0,5.28,1.67,6.4,4.08.12.27.04.59-.2.75-2.18,1.53-5.13,1.75-7.58.33-1.31-.76-2.28-1.87-2.87-3.14-.12-.26-.04-.57.2-.74ZM8.82,33.51c-.23-.17-.32-.48-.2-.74.59-1.28,1.56-2.39,2.87-3.14,2.45-1.42,5.4-1.19,7.58.33.24.17.33.49.2.75-1.12,2.41-3.56,4.08-6.4,4.08-1.51,0-2.91-.48-4.06-1.29ZM18.55,41.85c-1.31.76-2.76,1.04-4.16.92-.29-.03-.52-.25-.54-.54-.13-1.4.16-2.85.92-4.16,1.42-2.45,4.08-3.73,6.73-3.5.29.03.53.26.55.55.23,2.65-1.05,5.32-3.5,6.73ZM26.99,45.12c-.76,1.31-1.87,2.28-3.14,2.87-.26.12-.57.04-.74-.2-.81-1.15-1.29-2.55-1.29-4.06,0-2.83,1.67-5.28,4.08-6.4.27-.12.59-.04.75.2,1.53,2.18,1.75,5.13.33,7.58ZM34.64,47.79c-.17.23-.48.32-.74.2-1.28-.59-2.39-1.56-3.14-2.87-1.42-2.45-1.19-5.4.33-7.58.17-.24.49-.33.75-.2,2.41,1.12,4.08,3.56,4.08,6.4,0,1.51-.48,2.91-1.29,4.06ZM43.89,42.22c-.03.29-.25.52-.54.54-1.4.13-2.85-.16-4.16-.92-2.45-1.42-3.73-4.08-3.5-6.73.03-.29.26-.53.55-.55,2.65-.23,5.32,1.05,6.73,3.5.76,1.31,1.04,2.76.92,4.16ZM48.92,33.51c-1.15.81-2.55,1.29-4.06,1.29-2.83,0-5.28-1.67-6.4-4.08-.12-.27-.04-.59.2-.75,2.18-1.53,5.13-1.75,7.58-.33,1.31.76,2.28,1.87,2.87,3.14.12.26.04.57-.2.74ZM39.92,46.88c-2.7,1.56-3.62,5.01-2.07,7.71,1.56,2.7,5.01,3.62,7.71,2.07,2.7-1.56,3.62-5.01,2.07-7.71-1.56-2.7-5.01-3.62-7.71-2.07ZM54.95,36.93c-2.43-1.4-5.53-.57-6.94,1.86-1.4,2.43-.57,5.53,1.86,6.94,2.43,1.4,5.54.57,6.94-1.86,1.4-2.43.57-5.53-1.86-6.94ZM55.49,23.23c-2.49,0-4.51,2.02-4.51,4.51s2.02,4.51,4.51,4.51c2.49,0,4.51-2.02,4.51-4.51,0-2.49-2.02-4.51-4.51-4.51ZM53.41,18.14c1.89-1.09,2.54-3.51,1.45-5.4s-3.51-2.54-5.4-1.45c-1.89,1.09-2.54,3.51-1.45,5.4,1.09,1.89,3.51,2.54,5.4,1.45ZM39.92,8.6c1.62.93,3.69.38,4.62-1.24.93-1.62.38-3.69-1.24-4.62-1.62-.93-3.69-.38-4.62,1.24-.93,1.62-.38,3.69,1.24,4.62ZM28.87,5.64c1.56,0,2.82-1.26,2.82-2.82S30.43,0,28.87,0s-2.82,1.26-2.82,2.82,1.26,2.82,2.82,2.82ZM28.87,49.84c-2.8,0-5.08,2.27-5.08,5.08s2.27,5.08,5.08,5.08c2.8,0,5.08-2.27,5.08-5.08s-2.27-5.08-5.08-5.08ZM17.82,46.88c-2.16-1.25-4.92-.51-6.17,1.65-1.25,2.16-.51,4.92,1.65,6.17,2.16,1.25,4.92.51,6.17-1.65,1.25-2.16.51-4.92-1.65-6.17ZM4.34,37.35c-1.89,1.09-2.54,3.51-1.45,5.4,1.09,1.89,3.51,2.54,5.4,1.45,1.89-1.09,2.54-3.51,1.45-5.4-1.09-1.89-3.51-2.54-5.4-1.45ZM6.77,27.74c0-1.87-1.52-3.39-3.39-3.39S0,25.87,0,27.74s1.52,3.39,3.39,3.39,3.39-1.52,3.39-3.39ZM5.88,17.73c1.35.78,3.07.32,3.85-1.03.78-1.35.32-3.07-1.03-3.85s-3.07-.32-3.85,1.03c-.78,1.35-.32,3.07,1.03,3.85ZM17.82,8.6c1.08-.62,1.45-2,.83-3.08-.62-1.08-2-1.45-3.08-.83-1.08.62-1.45,2-.83,3.08.62,1.08,2,1.45,3.08.83Z"/></g></g></svg>