<?xml version="1.0" encoding="UTF-8"?><svg id="b" xmlns="http://www.w3.org/2000/svg" width="397.22" height="396.4" viewBox="0 0 397.22 396.4"><defs><style>.d{fill:#fff;}.e{fill:#0f395f;}</style></defs><g id="c"><path class="d" d="M199.45,396.4c-41.22,0-80.71-12.18-114.21-35.23-35.72-24.58-61.95-60.07-75.86-102.65-11.49-35.84-12.47-75.65-2.76-112.11,2.47-9.24,5.68-18.48,9.57-27.49C2.82,90.59-4.35,68.86,3.8,54.9l.15-.24c4.39-7.1,11.21-10.99,19.22-10.99,9.71,0,18.53,5.99,22.92,9.56,2.95,2.37,5.85,4.9,8.8,7.69,5.96-6.13,12.24-11.86,18.71-17.05C108.67,15.58,153.13,0,198.78,0c14.53,0,29,1.6,43.03,4.75,32.04,7.12,60.79,21.41,85.44,42.49,23.13,19.77,41.74,45.17,53.82,73.45,12.06,28.23,17.54,59.17,15.85,89.48-1.8,32.31-11.33,62.92-28.33,90.98-19.09,31.06-44.4,55.22-75.24,71.82-28.49,15.33-60.95,23.43-93.88,23.43h0Z"/><path class="e" d="M295.93,165.66c2.51-3.77.85-9.1-3.37-10.77-3.74-1.52-8,.28-9.52,4.02-3.02,7.45-8.15,14.04-14.73,18.71-6.57,4.7-14.53,7.42-22.6,7.84-16.44.99-32.43-7.67-42.2-20.71-2.92-3.92-8.91-4.21-12.18-.56-2.96,3.24-2.74,8.26.49,11.22,32.05,30.67,79.8,29.5,104.11-9.76Z"/><path class="e" d="M254.98,92.18c2.99,2.03,7.06,1.24,9.08-1.74,1.46-2.16,3.59-3.86,6.17-4.88,8.54-3.35,18.75.37,25.26,6.48,2.88,2.72,7.67,2.17,9.86-1.15,2.01-2.99,1.21-7.04-1.79-9.05-14.49-10.14-35.79-13.7-49.35.11-3.07,2.8-2.72,7.94.77,10.23Z"/><path class="e" d="M218.45,80.63c-16.72-13.83-41.55-13.32-59.19-1.39-7.55,5.39.52,16.13,7.79,10.41,2.94-2.55,6.38-4.57,10.1-5.88,11.13-4.09,24.9-1.84,33.08,6.96,6.88,5.22,14.72-4.43,8.23-10.1Z"/><path class="e" d="M239.17,13.46c-55.03-12.37-114.15,1.35-158.07,36.77-7.79,6.25-15.08,13.14-21.83,20.53-2.2,2.41-5.97,2.52-8.25.19-3.93-4.01-8.06-7.84-12.5-11.4-6.68-5.43-18.22-11.49-24.36-1.58-6.64,11.36,6.96,40.48,14.12,55.42.73,1.52.73,3.27.04,4.8-4.1,9.15-7.5,18.62-10.09,28.32-9.16,34.39-8.3,71.36,2.57,105.29,49.68,152.08,253.69,176.54,337.52,40.13,65.88-108.76,4.86-250.92-119.15-278.47ZM25.84,67.29c5.31,3.08,10.04,7.73,14.58,12.23,2.9,2.95,5.73,6.02,8.5,9.16.58,1.35,1.6,2.49,2.84,3.27,2.58,3,5.11,6.06,7.61,9.14,23.17,28.99,43.95,60.27,62.38,92.55-8.63,3.1-16.18,7.99-22.57,14.6-10.26-14.71-19.86-29.92-29.2-45.11-9.26-15.55-18.16-31.31-26.11-47.46-.15-1.72-.92-3.35-2.21-4.55-5.91-12.54-11.8-25.33-15.01-38.63-.37-1.76-.72-3.53-.82-5.19ZM170.23,282.93c.22,2.2.66,4.42,1.26,6.62-9.76,2.34-21.29-1.53-27.78-9.06-4.44-4.82-6.82-12.96-2.95-18.92,3.62-5.91,11.31-8.95,17.95-7.06,4.81,1.25,8.86,4.77,10.54,9.37,1.73,5.92.05,12.57.98,19.05ZM134.31,252.45c-9.78-10.56-18.84-21.78-27.4-33.42,5.85-6.67,12.87-11.24,21.29-13.85,6.85,12.58,13.35,25.49,18.58,38.73-4.84,1.66-9.22,4.58-12.48,8.54ZM43.65,270.33c-1.78-3.66-2.03-7.95-.38-11.67,4.18-9.47,3.43-25.06,2.64-41.26-.64-13.18-1.3-26.82.95-34.5,1.26-4.31,3.08-7.75,5.43-10.73s7.24-2.83,9.35.5c15.21,24.01,31.96,47.03,50.28,68.76,5.64,6.58,11.48,12.95,17.79,18.92-3.77,9.32-3.37,20.53,2.63,28.85,8.97,12.61,24.69,19.49,40.1,17.98,5.25-.56,10.63-2.12,15.51-5.11,0,0,4.65-2.66,8.86-7.12-3.51-1.98-6.08-5.43-6.08-5.43-2.26-2.8-3.83-5.71-4.72-9.2-1.4-5.45-1-11.64-2.66-17.44-2.7-10.18-11.92-18.16-22.12-20.01-1.2-.24-2.41-.37-3.62-.44-2.76-8.14-6.05-16.03-9.62-23.82-13.2-28.24-28.6-55.41-45.81-81.37-1.29-1.95-1.24-4.46.07-6.39,12.85-19.07,11.87-43.37-2.91-72.45-1.31-2.57-.55-5.72,1.81-7.37,48.71-34.01,112.45-40.36,167.22-16.76,64.67,28.18,100.42,87.66,104.05,149.27.21,3.53-2.85,6.4-6.36,6.01-19.77-2.23-40.69-2.62-57.75,8.46-10.61,6.89-18.16,17.33-24.02,28.26-3.54,6.24-5.88,13.38-6.26,20.51-.72,11.09,2.07,21.66,4.43,32.08,3.51,14.7,5.55,28.76,1.39,43.03-2.99,10.2-8.46,19.25-15.16,27.48-3.09,3.79-7.14,6.66-11.75,8.3-82.31,29.2-175.34-9.24-213.28-87.31Z"/></g></svg>