<?xml version="1.0" encoding="UTF-8"?><svg id="b" xmlns="http://www.w3.org/2000/svg" width="270" height="270" viewBox="0 0 270 270"><defs><style>.d{fill:#0f3960;}.e{fill:#fff;}.f{fill:none;}</style></defs><g id="c"><path class="d" d="M135,270c-24.81,0-45-20.19-45-45s20.19-45,45-45,45,20.19,45,45-20.19,45-45,45Z"/><path class="e" d="M137.92,209.88c.05,1.61-1.12,2.89-3,2.89-1.66,0-2.84-1.28-2.84-2.89s1.23-2.94,2.94-2.94,2.89,1.28,2.89,2.94ZM132.67,243.07v-25.91h4.71v25.91h-4.71Z"/><path class="e" d="M135,266.21c-22.72,0-41.21-18.49-41.21-41.21s18.49-41.21,41.21-41.21,41.21,18.48,41.21,41.21-18.49,41.21-41.21,41.21ZM135,186.79c-21.07,0-38.21,17.14-38.21,38.21s17.14,38.21,38.21,38.21,38.21-17.14,38.21-38.21-17.14-38.21-38.21-38.21Z"/><path class="f" d="M135,90c-24.81,0-45-20.19-45-45S110.19,0,135,0s45,20.19,45,45-20.19,45-45,45Z"/><path class="e" d="M137.92,29.88c.05,1.61-1.12,2.89-3,2.89-1.66,0-2.84-1.28-2.84-2.89s1.23-2.94,2.94-2.94,2.89,1.28,2.89,2.94ZM132.67,63.07v-25.91h4.71v25.91h-4.71Z"/><path class="e" d="M135,86.21c-22.72,0-41.21-18.49-41.21-41.21S112.28,3.79,135,3.79s41.21,18.48,41.21,41.21-18.49,41.21-41.21,41.21ZM135,6.79c-21.07,0-38.21,17.14-38.21,38.21s17.14,38.21,38.21,38.21,38.21-17.14,38.21-38.21S156.07,6.79,135,6.79Z"/><path class="e" d="M135,180c-24.81,0-45-20.19-45-45s20.19-45,45-45,45,20.19,45,45-20.19,45-45,45Z"/><path class="d" d="M137.92,119.88c.05,1.61-1.12,2.89-3,2.89-1.66,0-2.84-1.28-2.84-2.89s1.23-2.94,2.94-2.94,2.89,1.28,2.89,2.94ZM132.67,153.07v-25.91h4.71v25.91h-4.71Z"/><path class="d" d="M135,176.21c-22.72,0-41.21-18.49-41.21-41.21s18.49-41.21,41.21-41.21,41.21,18.48,41.21,41.21-18.49,41.21-41.21,41.21ZM135,96.79c-21.07,0-38.21,17.14-38.21,38.21s17.14,38.21,38.21,38.21,38.21-17.14,38.21-38.21-17.14-38.21-38.21-38.21Z"/><path class="d" d="M45,270c-24.81,0-45-20.19-45-45s20.19-45,45-45,45,20.19,45,45-20.19,45-45,45Z"/><path class="e" d="M75.09,225c0-4.03-5.39-7.4-14.79-9.26-.81-.16-1.6.37-1.76,1.18-.16.81.37,1.6,1.18,1.76,8.5,1.68,12.37,4.45,12.37,6.31,0,2.47-6.17,5.69-16.73,7.03.19-2.32.29-4.69.29-7.03s-.12-4.68-.3-6.95l6.36-8.42c.62-.82.46-1.99-.36-2.6-.33-.25-.71-.38-1.12-.38-.58,0-1.14.28-1.49.74l-3.98,5.27c-1.37-9.11-4.51-17.74-9.77-17.74s-8.75,9.17-10.05,20.03c-10.87,1.3-20.03,4.74-20.03,10.05s8.63,8.39,17.74,9.77l-5.27,3.98c-.4.3-.65.74-.72,1.23-.07.49.06.98.36,1.38.35.47.9.74,1.48.74.41,0,.79-.13,1.12-.38l8.42-6.36c2.27.18,4.59.3,6.95.3s4.71-.1,7.03-.29c-1.33,10.56-4.56,16.73-7.03,16.73-1.86,0-4.63-3.87-6.32-12.37-.16-.81-.96-1.34-1.76-1.18-.81.16-1.34.95-1.18,1.76,1.86,9.4,5.23,14.79,9.26,14.79,5.32,0,8.75-9.17,10.05-20.03,10.87-1.3,20.03-4.74,20.03-10.05ZM45,232.65c-2.29,0-4.54-.11-6.75-.29l-6.86-7.83c-.35-.4-.86-.63-1.4-.63-.45,0-.88.16-1.22.46-.37.33-.6.78-.63,1.28-.03.5.13.97.46,1.35l4.18,4.76c-9.37-1.46-14.86-4.42-14.86-6.75,0-2.47,6.17-5.69,16.73-7.03-.19,2.32-.29,4.68-.29,7.03,0,.83.67,1.5,1.5,1.5s1.5-.67,1.5-1.5c0-2.61.11-5.06.3-7.35,2.28-.19,4.74-.3,7.35-.3.83,0,1.5-.67,1.5-1.5s-.67-1.5-1.5-1.5c-2.34,0-4.71.1-7.03.29,1.33-10.56,4.56-16.73,7.03-16.73,2.33,0,5.29,5.49,6.75,14.86l-4.76-4.18c-.34-.3-.77-.46-1.23-.46-.54,0-1.05.23-1.4.64-.67.77-.6,1.95.17,2.62l7.83,6.86c.17,2.2.29,4.45.29,6.75,0,2.61-.11,5.06-.3,7.35-2.28.19-4.74.3-7.35.3Z"/><path class="e" d="M45,266.21c-22.72,0-41.21-18.49-41.21-41.21s18.49-41.21,41.21-41.21,41.21,18.48,41.21,41.21-18.49,41.21-41.21,41.21ZM45,186.79c-21.07,0-38.21,17.14-38.21,38.21s17.14,38.21,38.21,38.21,38.21-17.14,38.21-38.21-17.14-38.21-38.21-38.21Z"/><path class="f" d="M45,90C20.19,90,0,69.81,0,45S20.19,0,45,0s45,20.19,45,45-20.19,45-45,45Z"/><path class="e" d="M75.09,45c0-4.03-5.39-7.4-14.79-9.26-.81-.16-1.6.37-1.76,1.18-.16.81.37,1.6,1.18,1.76,8.5,1.68,12.37,4.45,12.37,6.31,0,2.47-6.17,5.69-16.73,7.03.19-2.32.29-4.69.29-7.03s-.12-4.68-.3-6.95l6.36-8.42c.62-.82.46-1.99-.36-2.6-.33-.25-.71-.38-1.12-.38-.58,0-1.14.28-1.49.74l-3.98,5.27c-1.37-9.11-4.51-17.74-9.77-17.74s-8.75,9.17-10.05,20.03c-10.87,1.3-20.03,4.74-20.03,10.05s8.63,8.39,17.74,9.77l-5.27,3.98c-.4.3-.65.74-.72,1.23-.07.49.06.98.36,1.38.35.47.9.74,1.48.74.41,0,.79-.13,1.12-.38l8.42-6.36c2.27.18,4.59.3,6.95.3s4.71-.1,7.03-.29c-1.33,10.56-4.56,16.73-7.03,16.73-1.86,0-4.63-3.87-6.32-12.37-.16-.81-.96-1.34-1.76-1.18-.81.16-1.34.95-1.18,1.76,1.86,9.4,5.23,14.79,9.26,14.79,5.32,0,8.75-9.17,10.05-20.03,10.87-1.3,20.03-4.74,20.03-10.05ZM45,52.65c-2.29,0-4.54-.11-6.75-.29l-6.86-7.83c-.35-.4-.86-.63-1.4-.63-.45,0-.88.16-1.22.46-.37.33-.6.78-.63,1.28-.03.5.13.97.46,1.35l4.18,4.76c-9.37-1.46-14.86-4.42-14.86-6.75,0-2.47,6.17-5.69,16.73-7.03-.19,2.32-.29,4.68-.29,7.03,0,.83.67,1.5,1.5,1.5s1.5-.67,1.5-1.5c0-2.61.11-5.06.3-7.35,2.28-.19,4.74-.3,7.35-.3.83,0,1.5-.67,1.5-1.5s-.67-1.5-1.5-1.5c-2.34,0-4.71.1-7.03.29,1.33-10.56,4.56-16.73,7.03-16.73,2.33,0,5.29,5.49,6.75,14.86l-4.76-4.18c-.34-.3-.77-.46-1.23-.46-.54,0-1.05.23-1.4.64-.67.77-.6,1.95.17,2.62l7.83,6.86c.17,2.2.29,4.45.29,6.75,0,2.61-.11,5.06-.3,7.35-2.28.19-4.74.3-7.35.3Z"/><path class="e" d="M45,86.21c-22.72,0-41.21-18.49-41.21-41.21S22.28,3.79,45,3.79s41.21,18.48,41.21,41.21-18.49,41.21-41.21,41.21ZM45,6.79C23.93,6.79,6.79,23.93,6.79,45s17.14,38.21,38.21,38.21,38.21-17.14,38.21-38.21S66.07,6.79,45,6.79Z"/><path class="e" d="M45,180c-24.81,0-45-20.19-45-45s20.19-45,45-45,45,20.19,45,45-20.19,45-45,45Z"/><path class="d" d="M75.09,135c0-4.03-5.39-7.4-14.79-9.26-.81-.16-1.6.37-1.76,1.18-.16.81.37,1.6,1.18,1.76,8.5,1.68,12.37,4.45,12.37,6.31,0,2.47-6.17,5.69-16.73,7.03.19-2.32.29-4.69.29-7.03s-.12-4.68-.3-6.95l6.36-8.42c.62-.82.46-1.99-.36-2.6-.33-.25-.71-.38-1.12-.38-.58,0-1.14.28-1.49.74l-3.98,5.27c-1.37-9.11-4.51-17.74-9.77-17.74s-8.75,9.17-10.05,20.03c-10.87,1.3-20.03,4.74-20.03,10.05s8.63,8.39,17.74,9.77l-5.27,3.98c-.4.3-.65.74-.72,1.23-.07.49.06.98.36,1.38.35.47.9.74,1.48.74.41,0,.79-.13,1.12-.38l8.42-6.36c2.27.18,4.59.3,6.95.3s4.71-.1,7.03-.29c-1.33,10.56-4.56,16.73-7.03,16.73-1.86,0-4.63-3.87-6.32-12.37-.16-.81-.96-1.34-1.76-1.18-.81.16-1.34.95-1.18,1.76,1.86,9.4,5.23,14.79,9.26,14.79,5.32,0,8.75-9.17,10.05-20.03,10.87-1.3,20.03-4.74,20.03-10.05ZM45,142.65c-2.29,0-4.54-.11-6.75-.29l-6.86-7.83c-.35-.4-.86-.63-1.4-.63-.45,0-.88.16-1.22.46-.37.33-.6.78-.63,1.28-.03.5.13.97.46,1.35l4.18,4.76c-9.37-1.46-14.86-4.42-14.86-6.75,0-2.47,6.17-5.69,16.73-7.03-.19,2.32-.29,4.68-.29,7.03,0,.83.67,1.5,1.5,1.5s1.5-.67,1.5-1.5c0-2.61.11-5.06.3-7.35,2.28-.19,4.74-.3,7.35-.3.83,0,1.5-.67,1.5-1.5s-.67-1.5-1.5-1.5c-2.34,0-4.71.1-7.03.29,1.33-10.56,4.56-16.73,7.03-16.73,2.33,0,5.29,5.49,6.75,14.86l-4.76-4.18c-.34-.3-.77-.46-1.23-.46-.54,0-1.05.23-1.4.64-.67.77-.6,1.95.17,2.62l7.83,6.86c.17,2.2.29,4.45.29,6.75,0,2.61-.11,5.06-.3,7.35-2.28.19-4.74.3-7.35.3Z"/><path class="d" d="M45,176.21c-22.72,0-41.21-18.49-41.21-41.21s18.49-41.21,41.21-41.21,41.21,18.48,41.21,41.21-18.49,41.21-41.21,41.21ZM45,96.79c-21.07,0-38.21,17.14-38.21,38.21s17.14,38.21,38.21,38.21,38.21-17.14,38.21-38.21-17.14-38.21-38.21-38.21Z"/><path class="d" d="M225,270c-24.81,0-45-20.19-45-45s20.19-45,45-45,45,20.19,45,45-20.19,45-45,45Z"/><path class="e" d="M225,183.41c-22.93,0-41.59,18.66-41.59,41.59s18.66,41.59,41.59,41.59,41.59-18.66,41.59-41.59-18.66-41.59-41.59-41.59ZM263.38,220.99c-1.64-1.1-3.66-2.41-5.87-3.84.33-1.55.47-3.02.26-4.07-.34-1.66-1.24-2.42-1.93-2.76-.53-.26-1.15-.38-1.76-.34-.39-1-.98-1.77-1.77-2.25-.39-.24-.92-.47-1.6-.52-.26-.89-.77-1.65-1.5-2.19-.81-.59-1.79-.83-2.82-.73-.76-1.12-1.85-1.81-3.11-2.02,3.53-1.91,6.64-3.53,8.91-4.61,6.15,6.11,10.25,14.26,11.2,23.35ZM245.53,249.35c-.02.14-.23.34-.54.52-1.46.83-6.56,1-9.31.52-1.75-.3-5.22-1.33-8.14-2.2.11-1.79-.29-4.85-1.35-6.62-.75-1.26-1.57-2.98-2.18-4.38,2.06-.66,4.67-1.71,7.04-2.65,1.9-.76,4.26-1.7,4.76-1.78.83-.07,3.69-.33,5.97-.85,1.46-.33,4.41.31,5.24.76.72.39,1.4,1.2,2.03,2.39.27.5.34.96.22,1.38-2.37-1.81-5.89-2.08-7.75-2.23-.82-.09-1.55.55-1.61,1.38-.06.83.55,1.55,1.38,1.61,1.64.13,4.86.39,6.43,1.85l.56.66c.25.29.51.73.36,1.17-.09.26-.31.49-.61.65-1.57-.83-3.66-1-5.69-1.17-.6-.05-1.19-.1-1.74-.16-.81-.11-1.57.49-1.67,1.31-.1.82.49,1.57,1.31,1.67.59.07,1.21.12,1.85.17,1.74.14,3.68.31,4.67.91.15.25.23.47.18.66-.09.38-.56.82-1.25,1.18-.86.16-2.47-.04-3.67-.2-.92-.12-1.72-.22-2.35-.21-.53,0-1.04.09-1.55.26-.79.26-1.21,1.11-.95,1.9s1.11,1.21,1.9.95c.21-.07.43-.1.64-.11.42,0,1.16.09,1.93.19,1.05.14,2.2.28,3.24.28.21,0,.4-.02.6-.03.03.08.04.16.03.21ZM221.34,243.58c-.19-.8-1.01-1.3-1.81-1.11-.81.19-1.3,1-1.11,1.81.41,1.69,1.21,5.12.03,7.01l-.25.41c-.2.32-.53.71-1,.71h0c-.28,0-.56-.15-.8-.38.3-1.75-.18-3.79-.65-5.77-.14-.58-.27-1.16-.38-1.71-.16-.81-.95-1.34-1.76-1.18-.81.16-1.34.95-1.18,1.76.12.58.26,1.19.41,1.81.41,1.71.85,3.63.57,4.75-.19.21-.37.33-.56.34-.38.04-.95-.28-1.51-.83-.42-.77-.72-2.36-.95-3.55-.17-.91-.32-1.7-.52-2.3-.17-.49-.41-.96-.72-1.39-.49-.67-1.43-.81-2.1-.32-.67.49-.81,1.43-.32,2.1.13.18.23.37.3.58.14.4.27,1.13.42,1.89.24,1.25.5,2.62.94,3.74-.07.05-.13.08-.18.09-.15.02-.39-.11-.66-.35-1.23-1.13-2.97-5.93-3.37-8.7-.25-1.76-.35-5.37-.42-8.42,1.74-.45,4.52-1.77,5.88-3.32.97-1.11,2.35-2.41,3.49-3.42,1.27,1.75,3.06,3.91,4.7,5.88,1.31,1.57,2.94,3.53,3.16,3.98.32.76,1.45,3.41,2.65,5.42.77,1.29,1.07,4.29.89,5.22-.15.8-.71,1.7-1.65,2.67-.4.41-.8.62-1.25.64.99-2.81.16-6.24-.28-8.06ZM187.56,234.31c3.35.57,8.05,1.24,13.22,1.87.07,2.8.18,5.62.42,7.25.15,1.01.51,2.51,1.01,4.09-3.36.18-6.29.31-8.27.34-2.95-4-5.15-8.58-6.38-13.55ZM198.78,230.02c2.93,0,5.85-1.8,7.42-2.76.71-.43.93-1.36.49-2.06-.43-.71-1.36-.93-2.06-.49-1.39.86-4.15,2.54-6.27,2.29l-.85-.2c-.37-.09-.84-.29-.98-.74-.08-.26-.03-.57.11-.87,1.76-.26,3.55-1.35,5.3-2.41.51-.31,1.02-.62,1.5-.89.72-.4.98-1.32.58-2.04-.4-.72-1.32-.98-2.04-.58-.52.29-1.05.61-1.59.94-1.5.91-3.19,1.93-4.35,2.01-.26-.11-.43-.25-.5-.43-.15-.36-.02-.99.32-1.69.6-.64,2.02-1.42,3.08-2,.82-.45,1.52-.83,2.03-1.21.42-.31.79-.69,1.1-1.12.48-.67.33-1.61-.34-2.09-.67-.48-1.61-.33-2.09.34-.13.18-.28.34-.45.46-.34.25-.99.61-1.67.98-1.11.61-2.34,1.28-3.26,2.05-.07-.05-.12-.1-.14-.14-.07-.13-.01-.41.13-.74.69-1.52,4.72-4.66,7.23-5.89,1.59-.78,5.01-1.99,7.88-3,.96,1.52,3.08,3.75,4.98,4.56,1.35.58,3.02,1.49,4.33,2.26-1.28,1.75-2.77,4.12-4.14,6.28-1.09,1.73-2.45,3.89-2.81,4.24-.63.54-2.79,2.43-4.33,4.2-.99,1.13-3.75,2.34-4.69,2.46-.81.11-1.84-.14-3.05-.74-.52-.25-.84-.58-1-1,.06,0,.11.01.16.01ZM212.08,201.47c.86,2.85,3.54,5.14,4.96,6.35.28.24.63.36.97.36.42,0,.85-.18,1.14-.53.54-.63.46-1.58-.17-2.11-1.25-1.06-3.7-3.17-4.11-5.27l-.07-.86c-.03-.38.01-.89.4-1.16.22-.16.54-.21.87-.17.79,1.59,2.37,2.96,3.92,4.29.46.39.9.78,1.31,1.15.29.27.65.4,1.02.4.4,0,.81-.16,1.1-.48.56-.61.53-1.56-.08-2.12-.43-.4-.91-.81-1.39-1.23-1.32-1.14-2.8-2.41-3.24-3.48.02-.29.09-.52.24-.64.3-.25.93-.33,1.71-.22.79.38,1.97,1.49,2.85,2.31.68.64,1.26,1.19,1.78,1.55.43.3.9.54,1.4.7.15.05.31.07.46.07.64,0,1.23-.41,1.43-1.04.25-.79-.18-1.63-.97-1.88-.21-.07-.41-.17-.58-.29-.35-.24-.88-.75-1.45-1.29-.92-.87-1.94-1.83-2.96-2.47.03-.08.06-.14.09-.18.1-.1.38-.14.74-.1,1.66.19,5.89,3.05,7.84,5.05,1.24,1.27,3.45,4.15,5.29,6.57-1.14,1.38-2.61,4.09-2.8,6.14-.13,1.46-.48,3.34-.81,4.82-2.06-.67-4.78-1.36-7.26-1.99-1.98-.5-4.45-1.13-4.9-1.36-.71-.43-3.17-1.9-5.33-2.83-1.38-.59-3.38-2.84-3.79-3.7-.35-.74-.43-1.79-.24-3.13.08-.56.29-.97.63-1.25ZM238.03,201.72c-1.71-2.22-3.45-4.44-4.6-5.62-.71-.73-1.89-1.74-3.22-2.71,2.62-2.13,4.9-3.96,6.5-5.15,4.85,1.55,9.28,4.03,13.09,7.24-3.06,1.51-7.23,3.72-11.77,6.25ZM222.38,234.56c-.55-.69-1.28-1.57-2.27-2.76-1.74-2.08-3.83-4.6-5.01-6.33.49-.74,1.1-1.7,1.93-3.02,1.45-2.29,3.19-5.06,4.47-6.71.85.24,1.96.52,3.46.9,2.63.67,5.8,1.47,7.77,2.18.04.88.11,2.03.21,3.57.18,2.71.39,5.97.33,8.06-.83.31-1.89.73-3.33,1.31-2.52,1.01-5.56,2.22-7.57,2.8ZM247.83,229.75c-1.67-.66-4.7-1.22-6.71-.76-1.42.32-3.32.57-4.84.72,0-2.16-.18-4.97-.35-7.52-.13-2.04-.3-4.58-.22-5.08.19-.8.83-3.61,1.04-5.94.13-1.49,1.66-4.1,2.34-4.75.59-.56,1.57-.96,2.9-1.19.56-.1,1.02-.03,1.39.22-2.45,1.7-3.8,4.95-4.52,6.68-.32.77.05,1.64.81,1.96.19.08.38.11.57.11.59,0,1.15-.35,1.39-.93.63-1.51,1.86-4.5,3.74-5.54l.8-.33c.35-.15.85-.26,1.23.02.22.16.37.44.43.77-1.27,1.24-2.08,3.17-2.87,5.05-.23.55-.46,1.1-.69,1.6-.35.75-.02,1.64.73,1.99.2.09.42.14.63.14.57,0,1.11-.32,1.36-.87.25-.54.49-1.12.74-1.71.67-1.61,1.43-3.4,2.31-4.16.28-.06.52-.07.68.03.33.2.6.79.74,1.56-.11.87-.8,2.34-1.32,3.43-.4.84-.74,1.56-.93,2.17-.15.5-.23,1.02-.23,1.54,0,.83.67,1.5,1.5,1.5h0c.83,0,1.5-.68,1.5-1.5,0-.22.03-.44.1-.65.12-.4.44-1.07.77-1.78.54-1.15,1.14-2.41,1.44-3.58.08,0,.15.01.2.03.13.06.25.32.32.67.33,1.64-1.08,6.55-2.38,9.02-.83,1.57-2.88,4.56-4.61,7.06ZM233.04,187.26c-1.56,1.22-3.43,2.73-5.47,4.4-1.38-.79-2.73-1.38-3.79-1.51-1.68-.19-2.68.43-3.22.98-.42.43-.71.96-.87,1.57-1.07.06-1.99.39-2.69.98-.35.3-.73.74-.99,1.36-.92-.02-1.81.23-2.55.75-.82.59-1.35,1.44-1.56,2.45-1.3.38-2.29,1.2-2.88,2.34-.73-3.95-1.3-7.42-1.64-9.91,5.29-2.73,11.27-4.28,17.62-4.28,2.76,0,5.45.3,8.04.85ZM204.57,192.28c.49,3.37,1.31,8.04,2.3,13.13-2.64.94-5.28,1.91-6.76,2.63-.92.45-2.23,1.26-3.57,2.23-1.21-3.13-2.24-5.85-2.88-7.75,2.94-4.08,6.65-7.57,10.92-10.25ZM191.6,205.71c.68,1.85,1.54,4.09,2.48,6.54-1.18,1.06-2.16,2.17-2.6,3.14-.7,1.54-.42,2.68-.06,3.37.28.53.7.97,1.22,1.31-.28,1.04-.25,2.01.11,2.86.17.42.47.92.99,1.36-.31.87-.34,1.79-.07,2.66.3.96.96,1.73,1.85,2.24-.04,1.36.43,2.55,1.33,3.46-4-.53-7.48-1.06-9.94-1.51-.32-2-.5-4.06-.5-6.15,0-7.02,1.9-13.61,5.19-19.29ZM196.34,250.8c1.97-.07,4.36-.2,6.98-.34.65,1.45,1.39,2.72,2.18,3.45,1.25,1.14,2.42,1.23,3.19,1.1.59-.1,1.14-.36,1.63-.76.9.59,1.84.85,2.75.78.45-.04,1.02-.17,1.6-.52.73.57,1.6.88,2.51.89h.02c1,0,1.93-.38,2.68-1.07,1.28.46,2.56.38,3.7-.2-1.74,3.63-3.31,6.78-4.51,9-8.97-1.39-16.93-5.88-22.74-12.33ZM222.29,263.48c1.59-3.02,3.67-7.27,5.86-11.99,2.69.79,5.4,1.56,7.02,1.85,1.01.17,2.55.29,4.2.3-.87,3.26-1.63,6.08-2.23,7.98-3.82,1.27-7.9,1.97-12.14,1.97-.91,0-1.81-.04-2.71-.11ZM240.68,260.25c.54-1.9,1.16-4.22,1.84-6.76,1.58-.17,3.02-.48,3.95-1.01,1.47-.83,1.92-1.92,2.03-2.69.09-.59,0-1.2-.22-1.78.84-.68,1.38-1.48,1.59-2.38.11-.44.16-1.02,0-1.68.76-.52,1.33-1.25,1.62-2.11.32-.95.25-1.96-.18-2.9.83-1.07,1.15-2.31.96-3.58,2.92,2.78,5.42,5.24,7.15,7.06-4,7.89-10.64,14.22-18.74,17.84ZM260.76,239.47c-2.38-2.44-5.77-5.73-9.59-9.28,1.59-2.31,3.16-4.65,3.93-6.11.48-.9,1.07-2.33,1.58-3.9,2.83,1.83,5.27,3.43,6.9,4.59,0,.08,0,.15,0,.23,0,5.12-1.01,10-2.83,14.47Z"/><path class="f" d="M225,90c-24.81,0-45-20.19-45-45S200.19,0,225,0s45,20.19,45,45-20.19,45-45,45Z"/><path class="e" d="M225,3.41c-22.93,0-41.59,18.66-41.59,41.59s18.66,41.59,41.59,41.59,41.59-18.66,41.59-41.59S247.93,3.41,225,3.41ZM263.38,40.99c-1.64-1.1-3.66-2.41-5.87-3.84.33-1.55.47-3.02.26-4.07-.34-1.66-1.24-2.42-1.93-2.76-.53-.26-1.15-.38-1.76-.34-.39-1-.98-1.77-1.77-2.25-.39-.24-.92-.47-1.6-.52-.26-.89-.77-1.65-1.5-2.19-.81-.59-1.79-.83-2.82-.73-.76-1.12-1.85-1.81-3.11-2.02,3.53-1.91,6.64-3.53,8.91-4.61,6.15,6.11,10.25,14.26,11.2,23.35ZM245.53,69.35c-.02.14-.23.34-.54.52-1.46.83-6.56,1-9.31.52-1.75-.3-5.22-1.33-8.14-2.2.11-1.79-.29-4.85-1.35-6.62-.75-1.26-1.57-2.98-2.18-4.38,2.06-.66,4.67-1.71,7.04-2.65,1.9-.76,4.26-1.7,4.76-1.78.83-.07,3.69-.33,5.97-.85,1.46-.33,4.41.31,5.24.76.72.39,1.4,1.2,2.03,2.39.27.5.34.96.22,1.38-2.37-1.81-5.89-2.08-7.75-2.23-.82-.09-1.55.55-1.61,1.38-.06.83.55,1.55,1.38,1.61,1.64.13,4.86.39,6.43,1.85l.56.66c.25.29.51.73.36,1.17-.09.26-.31.49-.61.65-1.57-.83-3.66-1-5.69-1.17-.6-.05-1.19-.1-1.74-.16-.81-.11-1.57.49-1.67,1.31-.1.82.49,1.57,1.31,1.67.59.07,1.21.12,1.85.17,1.74.14,3.68.31,4.67.91.15.25.23.47.18.66-.09.38-.56.82-1.25,1.18-.86.16-2.47-.04-3.67-.2-.92-.12-1.72-.22-2.35-.21-.53,0-1.04.09-1.55.26-.79.26-1.21,1.11-.95,1.9s1.11,1.21,1.9.95c.21-.07.43-.1.64-.11.42,0,1.16.09,1.93.19,1.05.14,2.2.28,3.24.28.21,0,.4-.02.6-.03.03.08.04.16.03.21ZM221.34,63.58c-.19-.8-1.01-1.3-1.81-1.11-.81.19-1.3,1-1.11,1.81.41,1.69,1.21,5.12.03,7.01l-.25.41c-.2.32-.53.71-1,.71h0c-.28,0-.56-.15-.8-.38.3-1.75-.18-3.79-.65-5.77-.14-.58-.27-1.16-.38-1.71-.16-.81-.95-1.34-1.76-1.18-.81.16-1.34.95-1.18,1.76.12.58.26,1.19.41,1.81.41,1.71.85,3.63.57,4.75-.19.21-.37.33-.56.34-.38.04-.95-.28-1.51-.83-.42-.77-.72-2.36-.95-3.55-.17-.91-.32-1.7-.52-2.3-.17-.49-.41-.96-.72-1.39-.49-.67-1.43-.81-2.1-.32-.67.49-.81,1.43-.32,2.1.13.18.23.37.3.58.14.4.27,1.13.42,1.89.24,1.25.5,2.62.94,3.74-.07.05-.13.08-.18.09-.15.02-.39-.11-.66-.35-1.23-1.13-2.97-5.93-3.37-8.7-.25-1.76-.35-5.37-.42-8.42,1.74-.45,4.52-1.77,5.88-3.32.97-1.11,2.35-2.41,3.49-3.42,1.27,1.75,3.06,3.91,4.7,5.88,1.31,1.57,2.94,3.53,3.16,3.98.32.76,1.45,3.41,2.65,5.42.77,1.29,1.07,4.29.89,5.22-.15.8-.71,1.7-1.65,2.67-.4.41-.8.62-1.25.64.99-2.81.16-6.24-.28-8.06ZM187.56,54.31c3.35.57,8.05,1.24,13.22,1.87.07,2.8.18,5.62.42,7.25.15,1.01.51,2.51,1.01,4.09-3.36.18-6.29.31-8.27.34-2.95-4-5.15-8.58-6.38-13.55ZM198.78,50.02c2.93,0,5.85-1.8,7.42-2.76.71-.43.93-1.36.49-2.06-.43-.71-1.36-.93-2.06-.49-1.39.86-4.15,2.54-6.27,2.29l-.85-.2c-.37-.09-.84-.29-.98-.74-.08-.26-.03-.57.11-.87,1.76-.26,3.55-1.35,5.3-2.41.51-.31,1.02-.62,1.5-.89.72-.4.98-1.32.58-2.04-.4-.72-1.32-.98-2.04-.58-.52.29-1.05.61-1.59.94-1.5.91-3.19,1.93-4.35,2.01-.26-.11-.43-.25-.5-.43-.15-.36-.02-.99.32-1.69.6-.64,2.02-1.42,3.08-2,.82-.45,1.52-.83,2.03-1.21.42-.31.79-.69,1.1-1.12.48-.67.33-1.61-.34-2.09-.67-.48-1.61-.33-2.09.34-.13.18-.28.34-.45.46-.34.25-.99.61-1.67.98-1.11.61-2.34,1.28-3.26,2.05-.07-.05-.12-.1-.14-.14-.07-.13-.01-.41.13-.74.69-1.52,4.72-4.66,7.23-5.89,1.59-.78,5.01-1.99,7.88-3,.96,1.52,3.08,3.75,4.98,4.56,1.35.58,3.02,1.49,4.33,2.26-1.28,1.75-2.77,4.12-4.14,6.28-1.09,1.73-2.45,3.89-2.81,4.24-.63.54-2.79,2.43-4.33,4.2-.99,1.13-3.75,2.34-4.69,2.46-.81.11-1.84-.14-3.05-.74-.52-.25-.84-.58-1-1,.06,0,.11.01.16.01ZM212.08,21.47c.86,2.85,3.54,5.14,4.96,6.35.28.24.63.36.97.36.42,0,.85-.18,1.14-.53.54-.63.46-1.58-.17-2.11-1.25-1.06-3.7-3.17-4.11-5.27l-.07-.86c-.03-.38.01-.89.4-1.16.22-.16.54-.21.87-.17.79,1.59,2.37,2.96,3.92,4.29.46.39.9.78,1.31,1.15.29.27.65.4,1.02.4.4,0,.81-.16,1.1-.48.56-.61.53-1.56-.08-2.12-.43-.4-.91-.81-1.39-1.23-1.32-1.14-2.8-2.41-3.24-3.48.02-.29.09-.52.24-.64.3-.25.93-.33,1.71-.22.79.38,1.97,1.49,2.85,2.31.68.64,1.26,1.19,1.78,1.55.43.3.9.54,1.4.7.15.05.31.07.46.07.64,0,1.23-.41,1.43-1.04.25-.79-.18-1.63-.97-1.88-.21-.07-.41-.17-.58-.29-.35-.24-.88-.75-1.45-1.29-.92-.87-1.94-1.83-2.96-2.47.03-.08.06-.14.09-.18.1-.1.38-.14.74-.1,1.66.19,5.89,3.05,7.84,5.05,1.24,1.27,3.45,4.15,5.29,6.57-1.14,1.38-2.61,4.09-2.8,6.14-.13,1.46-.48,3.34-.81,4.82-2.06-.67-4.78-1.36-7.26-1.99-1.98-.5-4.45-1.13-4.9-1.36-.71-.43-3.17-1.9-5.33-2.83-1.38-.59-3.38-2.84-3.79-3.7-.35-.74-.43-1.79-.24-3.13.08-.56.29-.97.63-1.25ZM238.03,21.72c-1.71-2.22-3.45-4.44-4.6-5.62-.71-.73-1.89-1.74-3.22-2.71,2.62-2.13,4.9-3.96,6.5-5.15,4.85,1.55,9.28,4.03,13.09,7.24-3.06,1.51-7.23,3.72-11.77,6.25ZM222.38,54.56c-.55-.69-1.28-1.57-2.27-2.76-1.74-2.08-3.83-4.6-5.01-6.33.49-.74,1.1-1.7,1.93-3.02,1.45-2.29,3.19-5.06,4.47-6.71.85.24,1.96.52,3.46.9,2.63.67,5.8,1.47,7.77,2.18.04.88.11,2.03.21,3.57.18,2.71.39,5.97.33,8.06-.83.31-1.89.73-3.33,1.31-2.52,1.01-5.56,2.22-7.57,2.8ZM247.83,49.75c-1.67-.66-4.7-1.22-6.71-.76-1.42.32-3.32.57-4.84.72,0-2.16-.18-4.97-.35-7.52-.13-2.04-.3-4.58-.22-5.08.19-.8.83-3.61,1.04-5.94.13-1.49,1.66-4.1,2.34-4.75.59-.56,1.57-.96,2.9-1.19.56-.1,1.02-.03,1.39.22-2.45,1.7-3.8,4.95-4.52,6.68-.32.77.05,1.64.81,1.96.19.08.38.11.57.11.59,0,1.15-.35,1.39-.93.63-1.51,1.86-4.5,3.74-5.54l.8-.33c.35-.15.85-.26,1.23.02.22.16.37.44.43.77-1.27,1.24-2.08,3.17-2.87,5.05-.23.55-.46,1.1-.69,1.6-.35.75-.02,1.64.73,1.99.2.09.42.14.63.14.57,0,1.11-.32,1.36-.87.25-.54.49-1.12.74-1.71.67-1.61,1.43-3.4,2.31-4.16.28-.06.52-.07.68.03.33.2.6.79.74,1.56-.11.87-.8,2.34-1.32,3.43-.4.84-.74,1.56-.93,2.17-.15.5-.23,1.02-.23,1.54,0,.83.67,1.5,1.5,1.5h0c.83,0,1.5-.68,1.5-1.5,0-.22.03-.44.1-.65.12-.4.44-1.07.77-1.78.54-1.15,1.14-2.41,1.44-3.58.08,0,.15.01.2.03.13.06.25.32.32.67.33,1.64-1.08,6.55-2.38,9.02-.83,1.57-2.88,4.56-4.61,7.06ZM233.04,7.26c-1.56,1.22-3.43,2.73-5.47,4.4-1.38-.79-2.73-1.38-3.79-1.51-1.68-.19-2.68.43-3.22.98-.42.43-.71.96-.87,1.57-1.07.06-1.99.39-2.69.98-.35.3-.73.74-.99,1.36-.92-.02-1.81.23-2.55.75-.82.59-1.35,1.44-1.56,2.45-1.3.38-2.29,1.2-2.88,2.34-.73-3.95-1.3-7.42-1.64-9.91,5.29-2.73,11.27-4.28,17.62-4.28,2.76,0,5.45.3,8.04.85ZM204.57,12.28c.49,3.37,1.31,8.04,2.3,13.13-2.64.94-5.28,1.91-6.76,2.63-.92.45-2.23,1.26-3.57,2.23-1.21-3.13-2.24-5.85-2.88-7.75,2.94-4.08,6.65-7.57,10.92-10.25ZM191.6,25.71c.68,1.85,1.54,4.09,2.48,6.54-1.18,1.06-2.16,2.17-2.6,3.14-.7,1.54-.42,2.68-.06,3.37.28.53.7.97,1.22,1.31-.28,1.04-.25,2.01.11,2.86.17.42.47.92.99,1.36-.31.87-.34,1.79-.07,2.66.3.96.96,1.73,1.85,2.24-.04,1.36.43,2.55,1.33,3.46-4-.53-7.48-1.06-9.94-1.51-.32-2-.5-4.06-.5-6.15,0-7.02,1.9-13.61,5.19-19.29ZM196.34,70.8c1.97-.07,4.36-.2,6.98-.34.65,1.45,1.39,2.72,2.18,3.45,1.25,1.14,2.42,1.23,3.19,1.1.59-.1,1.14-.36,1.63-.76.9.59,1.84.85,2.75.78.45-.04,1.02-.17,1.6-.52.73.57,1.6.88,2.51.89h.02c1,0,1.93-.38,2.68-1.07,1.28.46,2.56.38,3.7-.2-1.74,3.63-3.31,6.78-4.51,9-8.97-1.39-16.93-5.88-22.74-12.33ZM222.29,83.48c1.59-3.02,3.67-7.27,5.86-11.99,2.69.79,5.4,1.56,7.02,1.85,1.01.17,2.55.29,4.2.3-.87,3.26-1.63,6.08-2.23,7.98-3.82,1.27-7.9,1.97-12.14,1.97-.91,0-1.81-.04-2.71-.11ZM240.68,80.25c.54-1.9,1.16-4.22,1.84-6.76,1.58-.17,3.02-.48,3.95-1.01,1.47-.83,1.92-1.92,2.03-2.69.09-.59,0-1.2-.22-1.78.84-.68,1.38-1.48,1.59-2.38.11-.44.16-1.02,0-1.68.76-.52,1.33-1.25,1.62-2.11.32-.95.25-1.96-.18-2.9.83-1.07,1.15-2.31.96-3.58,2.92,2.78,5.42,5.24,7.15,7.06-4,7.89-10.64,14.22-18.74,17.84ZM260.76,59.47c-2.38-2.44-5.77-5.73-9.59-9.28,1.59-2.31,3.16-4.65,3.93-6.11.48-.9,1.07-2.33,1.58-3.9,2.83,1.83,5.27,3.43,6.9,4.59,0,.08,0,.15,0,.23,0,5.12-1.01,10-2.83,14.47Z"/><path class="e" d="M225,180c-24.81,0-45-20.19-45-45s20.19-45,45-45,45,20.19,45,45-20.19,45-45,45Z"/><path class="d" d="M225,93.41c-22.93,0-41.59,18.66-41.59,41.59s18.66,41.59,41.59,41.59,41.59-18.66,41.59-41.59-18.66-41.59-41.59-41.59ZM263.38,130.99c-1.64-1.1-3.66-2.41-5.87-3.84.33-1.55.47-3.02.26-4.07-.34-1.66-1.24-2.42-1.93-2.76-.53-.26-1.15-.38-1.76-.34-.39-1-.98-1.77-1.77-2.25-.39-.24-.92-.47-1.6-.52-.26-.89-.77-1.65-1.5-2.19-.81-.59-1.79-.83-2.82-.73-.76-1.12-1.85-1.81-3.11-2.02,3.53-1.91,6.64-3.53,8.91-4.61,6.15,6.11,10.25,14.26,11.2,23.35ZM245.53,159.35c-.02.14-.23.34-.54.52-1.46.83-6.56,1-9.31.52-1.75-.3-5.22-1.33-8.14-2.2.11-1.79-.29-4.85-1.35-6.62-.75-1.26-1.57-2.98-2.18-4.38,2.06-.66,4.67-1.71,7.04-2.65,1.9-.76,4.26-1.7,4.76-1.78.83-.07,3.69-.33,5.97-.85,1.46-.33,4.41.31,5.24.76.72.39,1.4,1.2,2.03,2.39.27.5.34.96.22,1.38-2.37-1.81-5.89-2.08-7.75-2.23-.82-.09-1.55.55-1.61,1.38-.06.83.55,1.55,1.38,1.61,1.64.13,4.86.39,6.43,1.85l.56.66c.25.29.51.73.36,1.17-.09.26-.31.49-.61.65-1.57-.83-3.66-1-5.69-1.17-.6-.05-1.19-.1-1.74-.16-.81-.11-1.57.49-1.67,1.31-.1.82.49,1.57,1.31,1.67.59.07,1.21.12,1.85.17,1.74.14,3.68.31,4.67.91.15.25.23.47.18.66-.09.38-.56.82-1.25,1.18-.86.16-2.47-.04-3.67-.2-.92-.12-1.72-.22-2.35-.21-.53,0-1.04.09-1.55.26-.79.26-1.21,1.11-.95,1.9s1.11,1.21,1.9.95c.21-.07.43-.1.64-.11.42,0,1.16.09,1.93.19,1.05.14,2.2.28,3.24.28.21,0,.4-.02.6-.03.03.08.04.16.03.21ZM221.34,153.58c-.19-.8-1.01-1.3-1.81-1.11-.81.19-1.3,1-1.11,1.81.41,1.69,1.21,5.12.03,7.01l-.25.41c-.2.32-.53.71-1,.71h0c-.28,0-.56-.15-.8-.38.3-1.75-.18-3.79-.65-5.77-.14-.58-.27-1.16-.38-1.71-.16-.81-.95-1.34-1.76-1.18-.81.16-1.34.95-1.18,1.76.12.58.26,1.19.41,1.81.41,1.71.85,3.63.57,4.75-.19.21-.37.33-.56.34-.38.04-.95-.28-1.51-.83-.42-.77-.72-2.36-.95-3.55-.17-.91-.32-1.7-.52-2.3-.17-.49-.41-.96-.72-1.39-.49-.67-1.43-.81-2.1-.32-.67.49-.81,1.43-.32,2.1.13.18.23.37.3.58.14.4.27,1.13.42,1.89.24,1.25.5,2.62.94,3.74-.07.05-.13.08-.18.09-.15.02-.39-.11-.66-.35-1.23-1.13-2.97-5.93-3.37-8.7-.25-1.76-.35-5.37-.42-8.42,1.74-.45,4.52-1.77,5.88-3.32.97-1.11,2.35-2.41,3.49-3.42,1.27,1.75,3.06,3.91,4.7,5.88,1.31,1.57,2.94,3.53,3.16,3.98.32.76,1.45,3.41,2.65,5.42.77,1.29,1.07,4.29.89,5.22-.15.8-.71,1.7-1.65,2.67-.4.41-.8.62-1.25.64.99-2.81.16-6.24-.28-8.06ZM187.56,144.31c3.35.57,8.05,1.24,13.22,1.87.07,2.8.18,5.62.42,7.25.15,1.01.51,2.51,1.01,4.09-3.36.18-6.29.31-8.27.34-2.95-4-5.15-8.58-6.38-13.55ZM198.78,140.02c2.93,0,5.85-1.8,7.42-2.76.71-.43.93-1.36.49-2.06-.43-.71-1.36-.93-2.06-.49-1.39.86-4.15,2.54-6.27,2.29l-.85-.2c-.37-.09-.84-.29-.98-.74-.08-.26-.03-.57.11-.87,1.76-.26,3.55-1.35,5.3-2.41.51-.31,1.02-.62,1.5-.89.72-.4.98-1.32.58-2.04-.4-.72-1.32-.98-2.04-.58-.52.29-1.05.61-1.59.94-1.5.91-3.19,1.93-4.35,2.01-.26-.11-.43-.25-.5-.43-.15-.36-.02-.99.32-1.69.6-.64,2.02-1.42,3.08-2,.82-.45,1.52-.83,2.03-1.21.42-.31.79-.69,1.1-1.12.48-.67.33-1.61-.34-2.09-.67-.48-1.61-.33-2.09.34-.13.18-.28.34-.45.46-.34.25-.99.61-1.67.98-1.11.61-2.34,1.28-3.26,2.05-.07-.05-.12-.1-.14-.14-.07-.13-.01-.41.13-.74.69-1.52,4.72-4.66,7.23-5.89,1.59-.78,5.01-1.99,7.88-3,.96,1.52,3.08,3.75,4.98,4.56,1.35.58,3.02,1.49,4.33,2.26-1.28,1.75-2.77,4.12-4.14,6.28-1.09,1.73-2.45,3.89-2.81,4.24-.63.54-2.79,2.43-4.33,4.2-.99,1.13-3.75,2.34-4.69,2.46-.81.11-1.84-.14-3.05-.74-.52-.25-.84-.58-1-1,.06,0,.11.01.16.01ZM212.08,111.47c.86,2.85,3.54,5.14,4.96,6.35.28.24.63.36.97.36.42,0,.85-.18,1.14-.53.54-.63.46-1.58-.17-2.11-1.25-1.06-3.7-3.17-4.11-5.27l-.07-.86c-.03-.38.01-.89.4-1.16.22-.16.54-.21.87-.17.79,1.59,2.37,2.96,3.92,4.29.46.39.9.78,1.31,1.15.29.27.65.4,1.02.4.4,0,.81-.16,1.1-.48.56-.61.53-1.56-.08-2.12-.43-.4-.91-.81-1.39-1.23-1.32-1.14-2.8-2.41-3.24-3.48.02-.29.09-.52.24-.64.3-.25.93-.33,1.71-.22.79.38,1.97,1.49,2.85,2.31.68.64,1.26,1.19,1.78,1.55.43.3.9.54,1.4.7.15.05.31.07.46.07.64,0,1.23-.41,1.43-1.04.25-.79-.18-1.63-.97-1.88-.21-.07-.41-.17-.58-.29-.35-.24-.88-.75-1.45-1.29-.92-.87-1.94-1.83-2.96-2.47.03-.08.06-.14.09-.18.1-.1.38-.14.74-.1,1.66.19,5.89,3.05,7.84,5.05,1.24,1.27,3.45,4.15,5.29,6.57-1.14,1.38-2.61,4.09-2.8,6.14-.13,1.46-.48,3.34-.81,4.82-2.06-.67-4.78-1.36-7.26-1.99-1.98-.5-4.45-1.13-4.9-1.36-.71-.43-3.17-1.9-5.33-2.83-1.38-.59-3.38-2.84-3.79-3.7-.35-.74-.43-1.79-.24-3.13.08-.56.29-.97.63-1.25ZM238.03,111.72c-1.71-2.22-3.45-4.44-4.6-5.62-.71-.73-1.89-1.74-3.22-2.71,2.62-2.13,4.9-3.96,6.5-5.15,4.85,1.55,9.28,4.03,13.09,7.24-3.06,1.51-7.23,3.72-11.77,6.25ZM222.38,144.56c-.55-.69-1.28-1.57-2.27-2.76-1.74-2.08-3.83-4.6-5.01-6.33.49-.74,1.1-1.7,1.93-3.02,1.45-2.29,3.19-5.06,4.47-6.71.85.24,1.96.52,3.46.9,2.63.67,5.8,1.47,7.77,2.18.04.88.11,2.03.21,3.57.18,2.71.39,5.97.33,8.06-.83.31-1.89.73-3.33,1.31-2.52,1.01-5.56,2.22-7.57,2.8ZM247.83,139.75c-1.67-.66-4.7-1.22-6.71-.76-1.42.32-3.32.57-4.84.72,0-2.16-.18-4.97-.35-7.52-.13-2.04-.3-4.58-.22-5.08.19-.8.83-3.61,1.04-5.94.13-1.49,1.66-4.1,2.34-4.75.59-.56,1.57-.96,2.9-1.19.56-.1,1.02-.03,1.39.22-2.45,1.7-3.8,4.95-4.52,6.68-.32.77.05,1.64.81,1.96.19.08.38.11.57.11.59,0,1.15-.35,1.39-.93.63-1.51,1.86-4.5,3.74-5.54l.8-.33c.35-.15.85-.26,1.23.02.22.16.37.44.43.77-1.27,1.24-2.08,3.17-2.87,5.05-.23.55-.46,1.1-.69,1.6-.35.75-.02,1.64.73,1.99.2.09.42.14.63.14.57,0,1.11-.32,1.36-.87.25-.54.49-1.12.74-1.71.67-1.61,1.43-3.4,2.31-4.16.28-.06.52-.07.68.03.33.2.6.79.74,1.56-.11.87-.8,2.34-1.32,3.43-.4.84-.74,1.56-.93,2.17-.15.5-.23,1.02-.23,1.54,0,.83.67,1.5,1.5,1.5h0c.83,0,1.5-.68,1.5-1.5,0-.22.03-.44.1-.65.12-.4.44-1.07.77-1.78.54-1.15,1.14-2.41,1.44-3.58.08,0,.15.01.2.03.13.06.25.32.32.67.33,1.64-1.08,6.55-2.38,9.02-.83,1.57-2.88,4.56-4.61,7.06ZM233.04,97.26c-1.56,1.22-3.43,2.73-5.47,4.4-1.38-.79-2.73-1.38-3.79-1.51-1.68-.19-2.68.43-3.22.98-.42.43-.71.96-.87,1.57-1.07.06-1.99.39-2.69.98-.35.3-.73.74-.99,1.36-.92-.02-1.81.23-2.55.75-.82.59-1.35,1.44-1.56,2.45-1.3.38-2.29,1.2-2.88,2.34-.73-3.95-1.3-7.42-1.64-9.91,5.29-2.73,11.27-4.28,17.62-4.28,2.76,0,5.45.3,8.04.85ZM204.57,102.28c.49,3.37,1.31,8.04,2.3,13.13-2.64.94-5.28,1.91-6.76,2.63-.92.45-2.23,1.26-3.57,2.23-1.21-3.13-2.24-5.85-2.88-7.75,2.94-4.08,6.65-7.57,10.92-10.25ZM191.6,115.71c.68,1.85,1.54,4.09,2.48,6.54-1.18,1.06-2.16,2.17-2.6,3.14-.7,1.54-.42,2.68-.06,3.37.28.53.7.97,1.22,1.31-.28,1.04-.25,2.01.11,2.86.17.42.47.92.99,1.36-.31.87-.34,1.79-.07,2.66.3.96.96,1.73,1.85,2.24-.04,1.36.43,2.55,1.33,3.46-4-.53-7.48-1.06-9.94-1.51-.32-2-.5-4.06-.5-6.15,0-7.02,1.9-13.61,5.19-19.29ZM196.34,160.8c1.97-.07,4.36-.2,6.98-.34.65,1.45,1.39,2.72,2.18,3.45,1.25,1.14,2.42,1.23,3.19,1.1.59-.1,1.14-.36,1.63-.76.9.59,1.84.85,2.75.78.45-.04,1.02-.17,1.6-.52.73.57,1.6.88,2.51.89h.02c1,0,1.93-.38,2.68-1.07,1.28.46,2.56.38,3.7-.2-1.74,3.63-3.31,6.78-4.51,9-8.97-1.39-16.93-5.88-22.74-12.33ZM222.29,173.48c1.59-3.02,3.67-7.27,5.86-11.99,2.69.79,5.4,1.56,7.02,1.85,1.01.17,2.55.29,4.2.3-.87,3.26-1.63,6.08-2.23,7.98-3.82,1.27-7.9,1.97-12.14,1.97-.91,0-1.81-.04-2.71-.11ZM240.68,170.25c.54-1.9,1.16-4.22,1.84-6.76,1.58-.17,3.02-.48,3.95-1.01,1.47-.83,1.92-1.92,2.03-2.69.09-.59,0-1.2-.22-1.78.84-.68,1.38-1.48,1.59-2.38.11-.44.16-1.02,0-1.68.76-.52,1.33-1.25,1.62-2.11.32-.95.25-1.96-.18-2.9.83-1.07,1.15-2.31.96-3.58,2.92,2.78,5.42,5.24,7.15,7.06-4,7.89-10.64,14.22-18.74,17.84ZM260.76,149.47c-2.38-2.44-5.77-5.73-9.59-9.28,1.59-2.31,3.16-4.65,3.93-6.11.48-.9,1.07-2.33,1.58-3.9,2.83,1.83,5.27,3.43,6.9,4.59,0,.08,0,.15,0,.23,0,5.12-1.01,10-2.83,14.47Z"/></g></svg>